
<svg xmlns="http://www.w3.org/2000/svg" version="1.1" xmlns:xlink="http://www.w3.org/1999/xlink" preserveAspectRatio="none" x="0px" y="0px" width="1920px" height="1080px" viewBox="0 0 1920 1080">
<defs>
<linearGradient id="Gradient_1" gradientUnits="userSpaceOnUse" x1="1074.25" y1="-558.95" x2="1074.25" y2="653.75" spreadMethod="pad">
<stop  offset="0%" stop-color="#000000"/>

<stop  offset="100%" stop-color="#FFFFFF"/>
</linearGradient>

<g id="scene2_0_Layer0_0_FILL">
<path fill="#8C8C8C" stroke="none" d="
M 1410.3 968.75
Q 1410.6 964.65 1409.95 960.75 1081.1666015625 877.615234375 731.15 857.5 508.0033203125 844.6890625 276.2 857.5 272.5 861.15 269.25 865.25 255.65 882.4 254.2 901.75 252.75 920.85 263.35 939.5 273.15 956.75 290.3 968.85 305.1 979.2 325.85 986.35 340.9 991.5 364.55 996.5 394.668359375 1002.7875 430.4 1007.9 440.726171875 1009.373828125 451.5 1010.75 484.15 1014.95 539.2 1020.25 555.412890625 1021.8056640625 571.3 1023.25 783.1353515625 1042.7279296875 936.95 1045.1 1153.2 1048.45 1333.3 1021.5 1349.2 1019.15 1358.3 1016.85 1371.9 1013.45 1381.95 1008 1393.6 1001.65 1401.2 991.7 1409.4 980.85 1410.3 968.75
M 1513.85 742.85
Q 1492.55 742.6 1471.3 742.75 1385.2578125 743.23359375 1300 749.8 1279.4751953125 751.369921875 1259 753.3 1194.2 759.4 1129.85 769.05 1113.9 771.4 1097.95 774 1060.95 780.05 1024.05 787.25 1016.5962890625 788.705859375 1008.95 790.25 955.1720703125 801.115234375 892 816.35 894.7 818.95 898.15 821.25 905.15 825.95 916.95 830.5 957 846.25 1010.15 855.45 1042.2 861 1106.45 867.75 1153.4 872.75 1178.55 874.75 1218.55 878 1250.95 878.25 1338.55 878.9 1424.65 859.15 1448.25 853.75 1471.3 846.9 1478.066796875 844.8865234375 1484.75 842.75 1538.623046875 825.62734375 1589.3 800.6 1604.5 793.05 1613.9 787.4 1624.65 780.9 1632.8 774 1634.55 772.5 1636.2 771 1644.55 763.35 1652.2 753.3 1653.95 751 1655.65 748.6 1585.05 743.65 1513.85 742.85
M 2079.2 444.1
Q 2083.1 423.05 2079.2 403.75 2072.2 401.95 2064.45 400.35 2016.084765625 390.6033203125 1963.8 387.85 1881.1697265625 383.5515625 1788.75 396.75 1673.6 413.2 1516.7 462.35 1496.25 468.8 1420.05 493.65
L 1420.05 554.25
Q 1429.8 562.95 1442.95 569.25 1459.2 577.15 1480 582.6 1495.7 586.75 1518.7 590.6 1610.2 606.3 1722.2 608.75 1788.9 610.3 1835.2 605.3 1896.4 598.65 1944.05 579.25 1954.034375 575.216796875 1963.8 570.45 1981.275 561.90546875 1998.05 551 2041.6 522.55 2062.95 487 2075.1 466.45 2079.2 444.1 Z"/>

<path fill="#A0A0A0" stroke="none" d="
M 1471.3 742.75
L 1471.35 704.8 1420.05 704.8 893.25 704.8 891.3 704.8 811.25 704.8 809.3 704.8 197.55 704.8 195.6 704.8 115.55 704.8 113.6 704.8 33.05 704.8 33.05 716.05 33.05 753.3 150.15 753.3 150.15 774 33.05 774 33.05 877.65
Q 155.808984375 864.1365234375 276.2 857.5 508.0033203125 844.6890625 731.15 857.5 823.842578125 833.06015625 873.3 820.9 882.75 818.6 892 816.35 955.1720703125 801.115234375 1008.95 790.25 1016.5962890625 788.705859375 1024.05 787.25 1060.95 780.05 1097.95 774 1113.9 771.4 1129.85 769.05
L 1129.85 753.3 1259 753.3
Q 1279.4751953125 751.369921875 1300 749.8 1385.2578125 743.23359375 1471.3 742.75
M 687.55 774
L 687.55 753.3 857.4 753.3 857.4 774 687.55 774
M 902.15 774
L 902.15 753.3 1057.05 753.3 1057.05 774 902.15 774
M 224.8 774
L 224.8 753.3 417 753.3 417 774 224.8 774
M 461.8 774
L 461.8 753.3 629.75 753.3 629.75 774 461.8 774
M 323.2 524.8
L 323.2 505.1 27.95 505.1 27.95 524.8 323.2 524.8
M 696.7 505.1
L 696.7 524.8 1018.9 524.8 1018.9 505.1 696.7 505.1 Z"/>

<path fill="#6B6B6B" stroke="none" d="
M 461.8 753.3
L 461.8 774 629.75 774 629.75 753.3 461.8 753.3
M 224.8 753.3
L 224.8 774 417 774 417 753.3 224.8 753.3
M 902.15 753.3
L 902.15 774 1057.05 774 1057.05 753.3 902.15 753.3
M 687.55 753.3
L 687.55 774 857.4 774 857.4 753.3 687.55 753.3
M 2161.7 492.8
Q 2162 467.3 2151.8 449.25 2140.2 428.8 2114.4 416.15 2099.9 409 2079.2 403.75 2083.1 423.05 2079.2 444.1 2075.1 466.45 2062.95 487 2041.6 522.55 1998.05 551 1981.275 561.90546875 1963.8 570.45 1954.034375 575.216796875 1944.05 579.25 1896.4 598.65 1835.2 605.3 1788.9 610.3 1722.2 608.75 1610.2 606.3 1518.7 590.6 1495.7 586.75 1480 582.6 1459.2 577.15 1442.95 569.25 1429.8 562.95 1420.05 554.25
L 1420.05 676.25 1420.05 694.75 1420.05 704.8 1471.35 704.8 1471.3 742.75
Q 1492.55 742.6 1513.85 742.85 1585.05 743.65 1655.65 748.6 1653.95 751 1652.2 753.3 1644.55 763.35 1636.2 771 1634.55 772.5 1632.8 774 1624.65 780.9 1613.9 787.4 1604.5 793.05 1589.3 800.6 1538.623046875 825.62734375 1484.75 842.75 1478.066796875 844.8865234375 1471.3 846.9 1448.25 853.75 1424.65 859.15 1338.55 878.9 1250.95 878.25 1218.55 878 1178.55 874.75 1153.4 872.75 1106.45 867.75 1042.2 861 1010.15 855.45 957 846.25 916.95 830.5 905.15 825.95 898.15 821.25 894.7 818.95 892 816.35 882.75 818.6 873.3 820.9 823.842578125 833.06015625 731.15 857.5 1081.1666015625 877.615234375 1409.95 960.75 1410.6 964.65 1410.3 968.75 1409.4 980.85 1401.2 991.7 1393.6 1001.65 1381.95 1008 1371.9 1013.45 1358.3 1016.85 1349.2 1019.15 1333.3 1021.5 1153.2 1048.45 936.95 1045.1 783.1353515625 1042.7279296875 571.3 1023.25 555.412890625 1021.8056640625 539.2 1020.25 484.15 1014.95 451.5 1010.75 440.726171875 1009.373828125 430.4 1007.9 394.668359375 1002.7875 364.55 996.5 340.9 991.5 325.85 986.35 305.1 979.2 290.3 968.85 273.15 956.75 263.35 939.5 252.75 920.85 254.2 901.75 255.65 882.4 269.25 865.25 272.5 861.15 276.2 857.5 155.808984375 864.1365234375 33.05 877.65 30.9501953125 877.9162109375 28.85 878.15
L 28.85 1083.15 722.15 1083.15
Q 789.1525390625 1108.283203125 842.55 1123.35 911.9 1142.95 992.85 1155.85 1060.45 1166.7 1145.8 1174.25 1197.8 1178.85 1300.05 1185.5 1403.9 1192.2 1454.2 1196.6 1487.5 1199.5 1554.5 1205.8 1613.05 1210.85 1655 1212.1 1768.8 1215.4 1852.7 1192.85 1901.55 1179.75 1946.3 1154.2 1952.2 1150.85 1957.9 1147.3 1996.35 1123.6 2026.65 1092.8 2063.15 1055.8 2083.4 1012.9 2084.6 1010.4 2085.7 1007.9 2105.1 964.45 2106.2 918.6 2106.8 892.1 2100.3 870.5 2092.75 845.4 2076.3 829.85 2063.15 817.3 2041.95 809.3 2039.2552734375 808.280859375 2036.1 807.25 2037.2033203125 805.858203125 2038.3 804.45 2057.2 780.25 2076.8 744.25 2129.95 647 2155.05 538.75 2161.45 511.55 2161.7 492.8
M 33.05 753.3
L 33.05 774 150.15 774 150.15 753.3 33.05 753.3
M 1129.85 753.3
L 1129.85 769.05
Q 1194.2 759.4 1259 753.3
L 1129.85 753.3 Z"/>

<path fill="#606060" stroke="none" d="
M 115.55 704.8
L 195.6 704.8 195.6 585.9 115.55 585.9 115.55 704.8
M 184.05 661.9
Q 187 661.9 189.1 664 191.2 666.1 191.2 669.05 191.2 671.95 189.1 674.05 188.95 674.2 188.85 674.3 186.85 676.15 184.05 676.15 181.15 676.15 179.05 674.05 176.95 671.95 176.95 669.05 176.95 666.1 179.05 664 181.15 661.9 184.05 661.9
M 891.3 585.9
L 811.25 585.9 811.25 704.8 891.3 704.8 891.3 585.9
M 879.75 661.9
Q 882.7 661.9 884.8 664 886.9 666.1 886.9 669.05 886.9 671.95 884.8 674.05 884.65 674.2 884.55 674.3 882.55 676.15 879.75 676.15 876.85 676.15 874.75 674.05 872.65 671.95 872.65 669.05 872.65 666.1 874.75 664 876.85 661.9 879.75 661.9
M 1420.05 694.75
L 1420.05 676.25 910.35 676.25 899.85 694.75 1420.05 694.75
M 204.15 571.6
L 214.65 560.55 90.35 560.55 105.85 571.6 204.15 571.6
M 434.5 211.35
L 434.5 228.75 434.5 235.1 434.5 252.15 434.5 270.25 434.5 271.95 434.55 271.95 434.55 301.2 434.55 330.85 439.95 333.55 439.95 205 434.5 211.35
M 555.2 0
L 555.2 136.65 597.55 152.85 597.55 348.1 621.8 348.1 621.8 0 555.2 0
M 609.25 18.55
L 609.25 47.4 566.35 34.5 566.35 5.6 609.25 18.55
M 609.25 64.75
L 609.25 93.6 566.35 80.7 566.35 51.8 609.25 64.75
M 566.35 130.9
L 566.35 102 609.25 114.95 609.25 143.8 566.35 130.9
M 105.85 694.75
L 90.35 676.25 27.95 676.25 27.95 694.75 105.85 694.75
M 801.55 694.75
L 786.05 676.25 214.65 676.25 204.15 694.75 801.55 694.75
M 899.85 571.6
L 910.35 560.55 786.05 560.55 801.55 571.6 899.85 571.6 Z"/>

<path fill="#3A3A3A" stroke="none" d="
M 189.1 664
Q 187 661.9 184.05 661.9 181.15 661.9 179.05 664 176.95 666.1 176.95 669.05 176.95 671.95 179.05 674.05 181.15 676.15 184.05 676.15 186.85 676.15 188.85 674.3 188.95 674.2 189.1 674.05 191.2 671.95 191.2 669.05 191.2 666.1 189.1 664
M 184.1 663.7
Q 186.3 663.7 187.85 665.25 189.45 666.85 189.45 669.05 189.45 671.25 187.85 672.8 186.65 674 185.1 674.3 184.6 674.4 184.1 674.4 183.6 674.4 183.1 674.3 181.5 674 180.3 672.8 178.75 671.25 178.75 669.05 178.75 666.85 180.3 665.25 181.85 663.7 184.1 663.7
M 113.6 704.8
L 115.55 704.8 115.55 585.9 195.6 585.9 195.6 704.8 197.55 704.8 197.5 583.2 113.55 583.2 113.6 704.8
M 884.8 664
Q 882.7 661.9 879.75 661.9 876.85 661.9 874.75 664 872.65 666.1 872.65 669.05 872.65 671.95 874.75 674.05 876.85 676.15 879.75 676.15 882.55 676.15 884.55 674.3 884.65 674.2 884.8 674.05 886.9 671.95 886.9 669.05 886.9 666.1 884.8 664
M 879.8 663.7
Q 882 663.7 883.55 665.25 885.15 666.85 885.15 669.05 885.15 671.25 883.55 672.8 882.35 674 880.8 674.3 880.3 674.4 879.8 674.4 879.3 674.4 878.8 674.3 877.2 674 876 672.8 874.45 671.25 874.45 669.05 874.45 666.85 876 665.25 877.55 663.7 879.8 663.7
M 811.25 585.9
L 891.3 585.9 891.3 704.8 893.25 704.8 893.2 583.2 809.25 583.2 809.3 704.8 811.25 704.8 811.25 585.9 Z"/>

<path fill="#4C4C4C" stroke="none" d="
M 187.85 665.25
Q 186.3 663.7 184.1 663.7 181.85 663.7 180.3 665.25 178.75 666.85 178.75 669.05 178.75 671.25 180.3 672.8 181.5 674 183.1 674.3 183.6 674.4 184.1 674.4 184.6 674.4 185.1 674.3 186.65 674 187.85 672.8 189.45 671.25 189.45 669.05 189.45 666.85 187.85 665.25
M 883.55 665.25
Q 882 663.7 879.8 663.7 877.55 663.7 876 665.25 874.45 666.85 874.45 669.05 874.45 671.25 876 672.8 877.2 674 878.8 674.3 879.3 674.4 879.8 674.4 880.3 674.4 880.8 674.3 882.35 674 883.55 672.8 885.15 671.25 885.15 669.05 885.15 666.85 883.55 665.25
M 1420.05 704.8
L 1420.05 694.75 899.85 694.75 899.85 571.6 801.55 571.6 801.55 694.75 204.15 694.75 204.15 571.6 105.85 571.6 105.85 694.75 27.95 694.75 27.95 716.05 33.05 716.05 33.05 704.8 113.6 704.8 113.55 583.2 197.5 583.2 197.55 704.8 809.3 704.8 809.25 583.2 893.2 583.2 893.25 704.8 1420.05 704.8 Z"/>

<path fill="#545454" stroke="none" d="
M 105.85 571.6
L 90.35 560.55 90.35 676.25 105.85 694.75 105.85 571.6
M 214.65 560.55
L 204.15 571.6 204.15 694.75 214.65 676.25 214.65 560.55
M 690.85 534.25
L 676.7 534.25 676.7 653.75 690.85 659.4 690.85 534.25
M 1386.55 534.25
L 1372.4 534.25 1372.4 653.75 1386.55 659.4 1386.55 534.25
M 801.55 571.6
L 786.05 560.55 786.05 676.25 801.55 694.75 801.55 571.6
M 910.35 560.55
L 899.85 571.6 899.85 694.75 910.35 676.25 910.35 560.55 Z"/>

<path fill="#595959" stroke="none" d="
M 27.95 470.5
L 26.95 470.5 26.95 501.25 27.95 501.75 27.95 470.5
M 722.65 471.8
L 723.65 470.5 722.65 470.5 722.65 471.8 Z"/>

<path fill="#B2B2B2" stroke="none" d="
M 288.55 477.65
L 279.55 470.5 27.95 470.5 27.95 501.75 27.95 505.1 323.2 505.1 288.55 477.65
M 723.65 470.5
L 722.65 471.8 718.1 477.65 696.7 505.1 1018.9 505.1 984.25 477.65 975.25 470.5 723.65 470.5 Z"/>

<path fill="#666666" stroke="none" d="
M 597.55 348.1
L 597.55 152.85 232.85 152.85 232.85 125.65 232.85 0 25.5 0 25.5 348.1 597.55 348.1
M 434.5 271.95
L 434.5 270.25 383 270.25 375.55 270.25 375.55 265.8 375.55 213.3 375.55 211.35 372.6 211.35 373.95 212.2 373.95 264.85 373.95 270.25 315 270.25 315 229.5 315 211.35 313.1 211.35 313.1 227.25 313.1 270.25 254.2 270.25 254.2 211.35 260.35 205 439.95 205 439.95 333.55 255.1 333.55 254.25 330.85 254.25 310.85 254.25 271.95 313.15 271.95 313.15 330.85 315 330.85 315 271.95 373.95 271.95 373.95 330.85 375.6 330.85 375.6 271.95 385.8 271.95 434.5 271.95
M 1390.9 470.5
L 1390.9 378.4 25.5 378.4 25.5 470.5 26.95 470.5 27.95 470.5 279.55 470.5 722.65 470.5 723.65 470.5 975.25 470.5 1390.9 470.5
M 1420.05 493.65
L 1420.05 477.65 984.25 477.65 1018.9 505.1 1018.9 524.8 696.7 524.8 696.7 505.1 718.1 477.65 288.55 477.65 323.2 505.1 323.2 524.8 27.95 524.8 27.95 676.25 90.35 676.25 90.35 560.55 214.65 560.55 214.65 676.25 786.05 676.25 786.05 560.55 910.35 560.55 910.35 676.25 1420.05 676.25 1420.05 554.25 1420.05 493.65
M 1350.25 534.25
L 1371 534.25 1371 551.65 1371 558 1371 575.05 1371 593.15 1319.5 593.15 1312.05 593.15 1312.05 588.7 1312.05 536.2 1312.05 534.25 1332.85 534.25 1350.25 534.25
M 1309.1 534.25
L 1310.45 534.25 1310.45 535.1 1310.45 587.75 1310.45 593.15 1251.5 593.15 1251.5 552.4 1251.5 534.25 1309.1 534.25
M 1372.4 534.25
L 1386.55 534.25 1386.55 659.4 980.5 659.4 970.85 653.75 970.85 594.85 1006.6 594.85 1006.6 653.75 1008.5 653.75 1008.5 594.85 1037.85 594.85 1067.45 594.85 1067.45 626.05 1067.45 653.75 1069.1 653.75 1069.1 627.8 1069.1 594.85 1089.9 594.85 1119.95 594.85 1128 594.85 1128 601.9 1128 630.85 1128 653.75 1130.15 653.75 1130.15 632.85 1130.15 603.8 1130.15 594.85 1139.6 594.85 1189.05 594.85 1189.05 632.45 1189.05 653.75 1190.75 653.75 1190.75 633.75 1190.75 594.85 1249.65 594.85 1249.65 653.75 1251.5 653.75 1251.5 594.85 1310.45 594.85 1310.45 653.75 1312.1 653.75 1312.1 594.85 1322.3 594.85 1371.05 594.85 1371.05 624.1 1371.05 653.75 1372.4 653.75 1372.4 534.25
M 970.85 593.15
L 970.85 534.25 980.4 534.25 1006.6 534.25 1006.6 561.85 1006.6 593.15 970.85 593.15
M 654.55 534.25
L 675.3 534.25 675.3 551.65 675.3 558 675.3 575.05 675.3 593.15 623.8 593.15 616.35 593.15 616.35 588.7 616.35 536.2 616.35 534.25 637.15 534.25 654.55 534.25
M 676.7 534.25
L 690.85 534.25 690.85 659.4 284.8 659.4 275.15 653.75 275.15 594.85 310.9 594.85 310.9 653.75 312.8 653.75 312.8 594.85 342.15 594.85 371.75 594.85 371.75 626.05 371.75 653.75 373.4 653.75 373.4 627.8 373.4 594.85 394.2 594.85 424.25 594.85 432.3 594.85 432.3 601.9 432.3 630.85 432.3 653.75 434.45 653.75 434.45 632.85 434.45 603.8 434.45 594.85 443.9 594.85 493.35 594.85 493.35 632.45 493.35 653.75 495.05 653.75 495.05 633.75 495.05 594.85 553.95 594.85 553.95 653.75 555.8 653.75 555.8 594.85 614.75 594.85 614.75 653.75 616.4 653.75 616.4 594.85 626.6 594.85 675.35 594.85 675.35 624.1 675.35 653.75 676.7 653.75 676.7 534.25
M 1189.05 593.15
L 1137.4 593.15 1130.15 593.15 1130.15 587.65 1130.15 534.25 1189.05 534.25 1189.05 593.15
M 1190.7 593.15
L 1190.7 534.25 1222.9 534.25 1249.6 534.25 1249.6 550.15 1249.6 593.15 1190.7 593.15
M 1025.7 534.25
L 1050.85 534.25 1060 534.25 1067.45 534.25 1067.45 539.9 1067.45 548.75 1067.45 573.65 1067.45 593.15 1036.25 593.15 1008.5 593.15 1008.5 563.9 1008.5 534.25 1025.7 534.25
M 1069.05 541.15
L 1069.05 534.25 1128 534.25 1128 585.95 1128 593.15 1118.05 593.15 1088.1 593.15 1069.05 593.15 1069.05 575.2 1069.05 550.2 1069.05 541.15
M 284.7 534.25
L 310.9 534.25 310.9 561.85 310.9 593.15 275.15 593.15 275.15 534.25 284.7 534.25
M 312.8 593.15
L 312.8 563.9 312.8 534.25 330 534.25 355.15 534.25 364.3 534.25 371.75 534.25 371.75 539.9 371.75 548.75 371.75 573.65 371.75 593.15 340.55 593.15 312.8 593.15
M 527.2 534.25
L 553.9 534.25 553.9 550.15 553.9 593.15 495 593.15 495 534.25 527.2 534.25
M 555.8 593.15
L 555.8 552.4 555.8 534.25 613.4 534.25 614.75 534.25 614.75 535.1 614.75 587.75 614.75 593.15 555.8 593.15
M 493.35 534.25
L 493.35 593.15 441.7 593.15 434.45 593.15 434.45 587.65 434.45 534.25 493.35 534.25
M 373.35 541.15
L 373.35 534.25 432.3 534.25 432.3 585.95 432.3 593.15 422.35 593.15 392.4 593.15 373.35 593.15 373.35 575.2 373.35 550.2 373.35 541.15
M 1142.45 348.1
L 1142.45 0 621.8 0 621.8 348.1 1142.45 348.1
M 1120.3 16.1
L 1120.3 47.4 901.65 47.4 901.65 16.1 1120.3 16.1
M 1120.3 67.1
L 1120.3 98.4 901.65 98.4 901.65 67.1 1120.3 67.1
M 1120.3 121.55
L 1120.3 152.85 901.65 152.85 901.65 121.55 1120.3 121.55
M 1120.3 223.2
L 1120.3 254.5 901.65 254.5 901.65 223.2 1120.3 223.2
M 1120.3 277.65
L 1120.3 308.95 901.65 308.95 901.65 277.65 1120.3 277.65
M 1120.3 172.2
L 1120.3 203.5 901.65 203.5 901.65 172.2 1120.3 172.2
M 860 16.1
L 860 47.4 641.35 47.4 641.35 16.1 860 16.1
M 860 67.1
L 860 98.4 641.35 98.4 641.35 67.1 860 67.1
M 860 121.55
L 860 152.85 641.35 152.85 641.35 121.55 860 121.55
M 860 223.2
L 860 254.5 641.35 254.5 641.35 223.2 860 223.2
M 860 277.65
L 860 308.95 641.35 308.95 641.35 277.65 860 277.65
M 860 172.2
L 860 203.5 641.35 203.5 641.35 172.2 860 172.2 Z"/>

<path fill="#AFAFAF" stroke="none" d="
M 280.55 330.85
L 254.25 310.85 254.25 330.85 280.55 330.85
M 286.4 211.35
L 313.1 227.25 313.1 211.35 286.4 211.35
M 373.95 212.2
L 372.6 211.35 315 211.35 315 229.5 373.95 264.85 373.95 212.2
M 434.55 271.95
L 434.5 271.95 385.8 271.95 434.55 301.2 434.55 271.95
M 434.5 270.25
L 434.5 252.15 375.55 213.3 375.55 265.8 383 270.25 434.5 270.25
M 434.5 228.75
L 413.75 211.35 396.35 211.35 434.5 235.1 434.5 228.75
M 373.35 541.15
L 373.35 550.2 422.35 593.15 432.3 593.15 432.3 585.95 373.35 541.15
M 373.35 593.15
L 392.4 593.15 373.35 575.2 373.35 593.15
M 434.45 593.15
L 441.7 593.15 434.45 587.65 434.45 593.15
M 555.8 534.25
L 555.8 552.4 614.75 587.75 614.75 535.1 613.4 534.25 555.8 534.25
M 553.9 534.25
L 527.2 534.25 553.9 550.15 553.9 534.25
M 364.3 534.25
L 355.15 534.25 371.75 548.75 371.75 539.9 364.3 534.25
M 312.8 534.25
L 312.8 563.9 340.55 593.15 371.75 593.15 371.75 573.65 330 534.25 312.8 534.25
M 310.9 534.25
L 284.7 534.25 310.9 561.85 310.9 534.25
M 1118.05 593.15
L 1128 593.15 1128 585.95 1069.05 541.15 1069.05 550.2 1118.05 593.15
M 1069.05 593.15
L 1088.1 593.15 1069.05 575.2 1069.05 593.15
M 1067.45 539.9
L 1060 534.25 1050.85 534.25 1067.45 548.75 1067.45 539.9
M 1008.5 534.25
L 1008.5 563.9 1036.25 593.15 1067.45 593.15 1067.45 573.65 1025.7 534.25 1008.5 534.25
M 1249.6 534.25
L 1222.9 534.25 1249.6 550.15 1249.6 534.25
M 1130.15 587.65
L 1130.15 593.15 1137.4 593.15 1130.15 587.65
M 495.05 653.75
L 521.35 653.75 495.05 633.75 495.05 653.75
M 371.75 626.05
L 371.75 594.85 342.15 594.85 371.75 626.05
M 434.45 632.85
L 434.45 653.75 456.55 653.75 434.45 632.85
M 432.3 653.75
L 432.3 630.85 394.2 594.85 373.4 594.85 373.4 627.8 398 653.75 432.3 653.75
M 432.3 601.9
L 432.3 594.85 424.25 594.85 432.3 601.9
M 434.45 594.85
L 434.45 603.8 491.35 653.75 493.35 653.75 493.35 632.45 443.9 594.85 434.45 594.85
M 675.35 624.1
L 675.35 594.85 626.6 594.85 675.35 624.1
M 675.3 593.15
L 675.3 575.05 616.35 536.2 616.35 588.7 623.8 593.15 675.3 593.15
M 675.3 558
L 675.3 551.65 654.55 534.25 637.15 534.25 675.3 558
M 1006.6 534.25
L 980.4 534.25 1006.6 561.85 1006.6 534.25
M 1190.75 633.75
L 1190.75 653.75 1217.05 653.75 1190.75 633.75
M 1130.15 632.85
L 1130.15 653.75 1152.25 653.75 1130.15 632.85
M 1069.1 594.85
L 1069.1 627.8 1093.7 653.75 1128 653.75 1128 630.85 1089.9 594.85 1069.1 594.85
M 1067.45 626.05
L 1067.45 594.85 1037.85 594.85 1067.45 626.05
M 1128 601.9
L 1128 594.85 1119.95 594.85 1128 601.9
M 1130.15 594.85
L 1130.15 603.8 1187.05 653.75 1189.05 653.75 1189.05 632.45 1139.6 594.85 1130.15 594.85
M 1371.05 624.1
L 1371.05 594.85 1322.3 594.85 1371.05 624.1
M 1310.45 535.1
L 1309.1 534.25 1251.5 534.25 1251.5 552.4 1310.45 587.75 1310.45 535.1
M 1371 558
L 1371 551.65 1350.25 534.25 1332.85 534.25 1371 558
M 1312.05 588.7
L 1319.5 593.15 1371 593.15 1371 575.05 1312.05 536.2 1312.05 588.7 Z"/>

<path fill="#303030" stroke="none" d="
M 313.15 271.95
L 254.25 271.95 254.25 310.85 280.55 330.85 313.15 330.85 313.15 271.95
M 313.1 227.25
L 286.4 211.35 254.2 211.35 254.2 270.25 313.1 270.25 313.1 227.25
M 373.95 330.85
L 373.95 271.95 315 271.95 315 330.85 373.95 330.85
M 373.95 270.25
L 373.95 264.85 315 229.5 315 270.25 373.95 270.25
M 385.8 271.95
L 375.6 271.95 375.6 330.85 434.55 330.85 434.55 301.2 385.8 271.95
M 383 270.25
L 375.55 265.8 375.55 270.25 383 270.25
M 434.5 252.15
L 434.5 235.1 396.35 211.35 375.55 211.35 375.55 213.3 434.5 252.15
M 413.75 211.35
L 434.5 228.75 434.5 211.35 413.75 211.35
M 566.35 102
L 566.35 130.9 609.25 143.8 609.25 114.95 566.35 102
M 609.25 93.6
L 609.25 64.75 566.35 51.8 566.35 80.7 609.25 93.6
M 609.25 47.4
L 609.25 18.55 566.35 5.6 566.35 34.5 609.25 47.4
M 373.35 575.2
L 392.4 593.15 422.35 593.15 373.35 550.2 373.35 575.2
M 373.35 534.25
L 373.35 541.15 432.3 585.95 432.3 534.25 373.35 534.25
M 493.35 593.15
L 493.35 534.25 434.45 534.25 434.45 587.65 441.7 593.15 493.35 593.15
M 613.4 534.25
L 614.75 535.1 614.75 534.25 613.4 534.25
M 555.8 552.4
L 555.8 593.15 614.75 593.15 614.75 587.75 555.8 552.4
M 553.9 593.15
L 553.9 550.15 527.2 534.25 495 534.25 495 593.15 553.9 593.15
M 355.15 534.25
L 330 534.25 371.75 573.65 371.75 548.75 355.15 534.25
M 371.75 539.9
L 371.75 534.25 364.3 534.25 371.75 539.9
M 312.8 563.9
L 312.8 593.15 340.55 593.15 312.8 563.9
M 310.9 593.15
L 310.9 561.85 284.7 534.25 275.15 534.25 275.15 593.15 310.9 593.15
M 1069.05 575.2
L 1088.1 593.15 1118.05 593.15 1069.05 550.2 1069.05 575.2
M 1069.05 534.25
L 1069.05 541.15 1128 585.95 1128 534.25 1069.05 534.25
M 1067.45 534.25
L 1060 534.25 1067.45 539.9 1067.45 534.25
M 1008.5 563.9
L 1008.5 593.15 1036.25 593.15 1008.5 563.9
M 1050.85 534.25
L 1025.7 534.25 1067.45 573.65 1067.45 548.75 1050.85 534.25
M 1190.7 534.25
L 1190.7 593.15 1249.6 593.15 1249.6 550.15 1222.9 534.25 1190.7 534.25
M 1137.4 593.15
L 1189.05 593.15 1189.05 534.25 1130.15 534.25 1130.15 587.65 1137.4 593.15
M 495.05 594.85
L 495.05 633.75 521.35 653.75 553.95 653.75 553.95 594.85 495.05 594.85
M 493.35 632.45
L 493.35 594.85 443.9 594.85 493.35 632.45
M 614.75 653.75
L 614.75 594.85 555.8 594.85 555.8 653.75 614.75 653.75
M 373.4 653.75
L 398 653.75 373.4 627.8 373.4 653.75
M 434.45 603.8
L 434.45 632.85 456.55 653.75 491.35 653.75 434.45 603.8
M 432.3 601.9
L 424.25 594.85 394.2 594.85 432.3 630.85 432.3 601.9
M 275.15 594.85
L 275.15 653.75 310.9 653.75 310.9 594.85 275.15 594.85
M 312.8 594.85
L 312.8 653.75 371.75 653.75 371.75 626.05 342.15 594.85 312.8 594.85
M 675.35 653.75
L 675.35 624.1 626.6 594.85 616.4 594.85 616.4 653.75 675.35 653.75
M 616.35 593.15
L 623.8 593.15 616.35 588.7 616.35 593.15
M 675.3 575.05
L 675.3 558 637.15 534.25 616.35 534.25 616.35 536.2 675.3 575.05
M 675.3 534.25
L 654.55 534.25 675.3 551.65 675.3 534.25
M 970.85 534.25
L 970.85 593.15 1006.6 593.15 1006.6 561.85 980.4 534.25 970.85 534.25
M 1189.05 632.45
L 1189.05 594.85 1139.6 594.85 1189.05 632.45
M 1217.05 653.75
L 1249.65 653.75 1249.65 594.85 1190.75 594.85 1190.75 633.75 1217.05 653.75
M 1067.45 653.75
L 1067.45 626.05 1037.85 594.85 1008.5 594.85 1008.5 653.75 1067.45 653.75
M 1093.7 653.75
L 1069.1 627.8 1069.1 653.75 1093.7 653.75
M 1130.15 603.8
L 1130.15 632.85 1152.25 653.75 1187.05 653.75 1130.15 603.8
M 1128 601.9
L 1119.95 594.85 1089.9 594.85 1128 630.85 1128 601.9
M 970.85 594.85
L 970.85 653.75 1006.6 653.75 1006.6 594.85 970.85 594.85
M 1310.45 653.75
L 1310.45 594.85 1251.5 594.85 1251.5 653.75 1310.45 653.75
M 1322.3 594.85
L 1312.1 594.85 1312.1 653.75 1371.05 653.75 1371.05 624.1 1322.3 594.85
M 1310.45 593.15
L 1310.45 587.75 1251.5 552.4 1251.5 593.15 1310.45 593.15
M 1309.1 534.25
L 1310.45 535.1 1310.45 534.25 1309.1 534.25
M 1312.05 593.15
L 1319.5 593.15 1312.05 588.7 1312.05 593.15
M 1332.85 534.25
L 1312.05 534.25 1312.05 536.2 1371 575.05 1371 558 1332.85 534.25
M 1371 534.25
L 1350.25 534.25 1371 551.65 1371 534.25
M 860 203.5
L 860 172.2 641.35 172.2 641.35 203.5 860 203.5
M 860 308.95
L 860 277.65 641.35 277.65 641.35 308.95 860 308.95
M 860 254.5
L 860 223.2 641.35 223.2 641.35 254.5 860 254.5
M 860 152.85
L 860 121.55 641.35 121.55 641.35 152.85 860 152.85
M 860 98.4
L 860 67.1 641.35 67.1 641.35 98.4 860 98.4
M 860 47.4
L 860 16.1 641.35 16.1 641.35 47.4 860 47.4
M 1120.3 203.5
L 1120.3 172.2 901.65 172.2 901.65 203.5 1120.3 203.5
M 1120.3 308.95
L 1120.3 277.65 901.65 277.65 901.65 308.95 1120.3 308.95
M 1120.3 254.5
L 1120.3 223.2 901.65 223.2 901.65 254.5 1120.3 254.5
M 1120.3 152.85
L 1120.3 121.55 901.65 121.55 901.65 152.85 1120.3 152.85
M 1120.3 98.4
L 1120.3 67.1 901.65 67.1 901.65 98.4 1120.3 98.4
M 1120.3 47.4
L 1120.3 16.1 901.65 16.1 901.65 47.4 1120.3 47.4 Z"/>

<path fill="#848484" stroke="none" d="
M 375.6 330.85
L 373.95 330.85 315 330.85 313.15 330.85 280.55 330.85 254.25 330.85 255.1 333.55 439.95 333.55 434.55 330.85 375.6 330.85
M 722.65 471.8
L 722.65 470.5 279.55 470.5 288.55 477.65 718.1 477.65 722.65 471.8
M 1195.45 348.1
L 1142.45 348.1 621.8 348.1 597.55 348.1 25.5 348.1 25.5 378.4 1390.9 378.4 1195.45 348.1
M 555.2 136.65
L 526.45 125.65 232.85 125.65 232.85 152.85 597.55 152.85 555.2 136.65
M 1420.05 477.65
L 1390.9 470.5 975.25 470.5 984.25 477.65 1420.05 477.65 Z"/>

<path fill="#565656" stroke="none" d="
M 413.75 211.35
L 434.5 211.35 439.95 205 260.35 205 254.2 211.35 286.4 211.35 313.1 211.35 315 211.35 372.6 211.35 375.55 211.35 396.35 211.35 413.75 211.35 Z"/>

<path fill="url(#Gradient_1)" stroke="none" d="
M 526.45 125.65
L 555.2 136.65 555.2 0 232.85 0 232.85 125.65 526.45 125.65
M 1963.8 387.85
L 1963.8 0 1142.45 0 1142.45 348.1 1195.45 348.1 1390.9 378.4 1390.9 470.5 1420.05 477.65 1420.05 493.65
Q 1496.25 468.8 1516.7 462.35 1673.6 413.2 1788.75 396.75 1881.1697265625 383.5515625 1963.8 387.85 Z"/>

<path fill="#6D6D6D" stroke="none" d="
M 676.7 653.75
L 675.35 653.75 616.4 653.75 614.75 653.75 555.8 653.75 553.95 653.75 521.35 653.75 495.05 653.75 493.35 653.75 491.35 653.75 456.55 653.75 434.45 653.75 432.3 653.75 398 653.75 373.4 653.75 371.75 653.75 312.8 653.75 310.9 653.75 275.15 653.75 284.8 659.4 690.85 659.4 676.7 653.75
M 1312.1 653.75
L 1310.45 653.75 1251.5 653.75 1249.65 653.75 1217.05 653.75 1190.75 653.75 1189.05 653.75 1187.05 653.75 1152.25 653.75 1130.15 653.75 1128 653.75 1093.7 653.75 1069.1 653.75 1067.45 653.75 1008.5 653.75 1006.6 653.75 970.85 653.75 980.5 659.4 1386.55 659.4 1372.4 653.75 1371.05 653.75 1312.1 653.75 Z"/>
</g>

<g id="car_0_Layer0_0_FILL">
<path fill="#232323" stroke="none" d="
M 139.8 428.45
Q 128.45 416.2 125 398.3
L 94.55 398.3
Q 98 416.2 109.35 428.4 122.2 442.3 139.2 442.55 139.5 442.55 139.85 442.55 140.05 442.55 140.25 442.55
L 168.7 442.55
Q 161.85 442.3 155.7 439.85 147.1 436.35 139.8 428.45
M 404.3 305.8
Q 402.1 308.65 399.95 311.75 397.05 316 394.6 320.35 382.85 340.75 379.8 364.05 378.7 372.35 378.7 381.05 378.7 387.85 379.4 394.15
L 365.7 396
Q 368.85 415.4 380.9 428.4 393.75 442.3 410.75 442.55 411.25 442.55 411.8 442.55
L 440.25 442.55
Q 433.4 442.3 427.25 439.85 418.65 436.35 411.35 428.45 395 410.8 395 381.45 395 355.3 408 333.5 409.6 330.85 411.35 328.25 425.15 308.1 443.75 301.8 447.15 300.65 450.7 299.95 454.75 299.2 458.6 299.1
L 430.75 299.05
Q 429.25 299 427.75 299.05 424.1 299.15 420.25 299.9 411.85 301.5 404.35 305.75 404.31875 305.77578125 404.3 305.8
M 729.65 264.05
Q 733.7 263.3 737.55 263.2
L 709.7 263.15
Q 708.2 263.1 706.7 263.15 705.55 263.2 704.35 263.3 701.8 263.5 699.2 264 690.8 265.6 683.3 269.85 679.85 273.95 676.6 278.7 673.7 282.95 671.2 287.35 671.1 287.5 671.05 287.65 661.9 303.65 658.1 321.5 656.75 327.9 656.05 334.5 655.35 341.15 655.35 348 655.35 352.6 655.65 356.95
L 644.4 358.45
Q 647.3 378.95 659.85 392.5 672.7 406.4 689.7 406.65 690.2 406.65 690.75 406.65
L 719.2 406.65
Q 712.35 406.4 706.2 403.95 697.6 400.45 690.3 392.55 673.95 374.9 673.95 345.55 673.95 330.8 678.1 317.45 682.15 304.2 690.3 292.35 698.5 280.35 708.4 273.3 715.15 268.45 722.7 265.9 726.1 264.75 729.65 264.05 Z"/>

<path fill="#353535" stroke="none" d="
M 218.55 413.45
Q 223.55 406.15 227.05 398.3
L 125 398.3
Q 128.45 416.2 139.8 428.45 147.1 436.35 155.7 439.85 161.85 442.3 168.7 442.55 168.85 442.55 169 442.55 173.9 442.7 179.15 441.7 202.25 437.3 218.55 413.45
M 522.05 374.95
L 505.5 374
Q 503.05 391.4 494.35 406.7 498.9 406.7 503.75 405.8 526.85 401.4 543.15 377.55 545.15 374.6 546.95 371.6
L 522.05 374.95
M 478.7 276.3
Q 466 272.15 451.25 274.95 424.2255859375 280.0951171875 404.35 305.75 411.85 301.5 420.25 299.9 424.1 299.15 427.75 299.05 429.25 299 430.75 299.05
L 458.6 299.1
Q 459.65 299.05 460.2 299.1 460.25 299.1 460.3 299.1 477.3 299.35 490.1 313.2 503.15 327.25 505.8 348.75
L 523.75 348.65
Q 522.45 313.75 502.55 292.2 491.75 280.55 478.7 276.3
M 527.45 43.75
L 524.4 43.95 494.5 169.4 523.75 183.8 523.75 348.65
Q 523.75 348.75 523.75 348.9 523.8 351.1 523.8 353.4 523.8 364.45 522.05 374.95 526.3 366.15 525.55 348.5
L 525.55 348.45 525.55 182.7 497.3 168.4 527.45 43.75
M 739.25 263.2
Q 756.25 263.45 769.05 277.3 784.2 293.65 785.3 320
L 800.45 319.05
Q 800.1 281.75 779.2 259.15 757.95 236.2 727.9 241.9 713.1 244.75 700.45 253.7 691.3 260.15 683.3 269.85 690.8 265.6 699.2 264 701.8 263.5 704.35 263.3 705.55 263.2 706.7 263.15 708.2 263.1 709.7 263.15
L 737.55 263.2 738.05 263.2
Q 738.65 263.15 739.25 263.2
M 701.25 30.8
L 699.7 30.9 699.7 218.4
Q 695.1 224.6 691.25 230.95 674.85 257.7 671.05 287.65 671.1 287.5 671.2 287.35 678.15 255.55 691.9 232.65 696.25 225.4 701.25 219.1
L 701.25 30.8 Z"/>

<path fill="#CCCCCC" stroke="none" d="
M 187.1 287.6
L 179.9 294.85 215.95 330.9 284.55 330.9 284.55 287.6 187.1 287.6
M 75.05 287.6
L 0 287.6 0 330.9 47.55 330.9 82.95 295.5 75.05 287.6
M 418.55 35.1
L 448.95 5.55 390.35 7.65 358.65 35.1 418.55 35.1
M 462.55 163.05
L 468.7 145.2 356.9 52.1 279.5 52.55 390.85 163.05 462.55 163.05
M 474.55 128.25
L 481.05 109.25 413.9 51.8 390.1 51.95 474.55 128.25
M 492.95 74.7
L 501 51.3 464.4 51.5 492.95 74.7
M 588.8 35.1
L 601.7 0 525.5 2.75 522.8 6.25 500.55 35.1 588.8 35.1
M 711.55 64.95
L 711.55 86.3 789.95 138.6 796.5 138 711.55 64.95
M 811 81.55
L 811 34.95 747.5 41 811 81.55
M 694.3 171.65
L 683.5 166.1 645.3 171.35 656.1 176.3 694.3 171.65
M 677.6 150.35
L 689 149.25 689 145.8 571.8 54 555.9 55.25 677.6 150.35
M 689 138.75
L 689 105.05 649.95 47.85 610.9 50.95 689 138.75 Z"/>

<path fill="#D3D3D3" stroke="none" d="
M 192.65 282.05
L 187.1 287.6 284.55 287.6 324.6 262.1 281.1 282.05 192.65 282.05
M 7 283.15
L 0 287.6 75.05 287.6 70.6 283.15 7 283.15 Z"/>

<path fill="#424242" stroke="none" d="
M 56.55 374.25
L 0 374.25 84.25 398.3 94.55 398.3 125 398.3 227.05 398.3 348.65 398.3 284.55 374.25 199.05 374.25 199.05 332.3 164.9 298.15 94.6 298.15 56.55 336.2 56.55 374.25
M 251.9 221.3
L 262 221.3 327.05 179.2 316.95 179.2 251.9 221.3
M 294.3 179.2
L 284.2 179.2 219.15 221.3 246.95 221.3 259.05 213.45 241.35 213.45 294.3 179.2
M 261.5 178.6
Q 256.05 178.6 247.8 181.2 239.55 183.8 230.05 188.45 220.4 193.2 210.85 199.4
L 207.15 201.8
Q 198.1 207.7 193.3 212.35 188.55 216.9 188.8 219.45 189.3 221.85 194.65 221.85 200 221.85 208.2 219.3 216.3 216.7 225.9 212.05 235.55 207.3 245.1 201.1
L 248.15 199.15
Q 257.4 193.1 262.4 188.4 267.3 183.7 267.1 181.15 266.85 178.6 261.5 178.6
M 249.15 186.55
Q 253.05 186.55 250.1 189.8 247.1 193.1 237.45 199.3
L 234.4 201.3
Q 224.95 207.4 217.85 210.65 210.7 213.95 206.85 213.95 202.8 213.95 205.9 210.6 209 207.3 218.55 201.1
L 223.3 198.05
Q 241.5 186.55 249.15 186.55
M 227.35 181
Q 226.3 179.2 221.5 179.2
L 204.75 179.2 139.7 221.3 149.8 221.3 171.95 206.95 178.4 206.95
Q 179.5 206.95 180.65 206.9 187.55 206.45 196.15 203.35 206.3 199.65 215.85 193.45 222.2 189.35 225.25 186.05 228.4 182.75 227.35 181
M 211.1 188.85
Q 210 190.55 205.45 193.55 201.25 196.25 197.4 197.7 194.15 198.95 191.5 199.15 191.1 199.15 190.7 199.15
L 184.05 199.15 202.75 187.05 209.55 187.05
Q 212.25 187.05 211.1 188.85
M 402.05 179.2
L 373 179.2 307.95 221.3 336.95 221.3 349.05 213.45 330.2 213.45 345.75 203.4 361.7 203.4 373.35 195.85 357.4 195.85 371.05 187.05 389.95 187.05 402.05 179.2
M 351.7 178.6
Q 346.3 178.6 338.35 181.15 330.4 183.65 321.15 188.3 311.75 192.9 302.2 199.1
L 298.95 201.15
Q 289 207.6 284 212.15 281.35 214.55 280.1 216.45 276.55 221.85 284.9 221.85 288.45 221.85 292.95 220.9 294.75 220.55 296.7 220 303.45 218.15 310.75 214.8 318.15 211.4 325.2 207.05
L 315.1 207.05
Q 309.4 210.6 304.95 212.3 300.65 213.9 297.2 213.9 293.05 213.9 295.75 211.05 298.55 208.15 308.95 201.4
L 313.65 198.4
Q 323.35 192.15 329.45 189.4 335.5 186.55 339.35 186.55 343.05 186.55 342.35 188.2 341.5 189.9 335.75 193.7
L 345.85 193.7
Q 356.2 186.6 357.75 182.6 359.35 178.6 351.7 178.6
M 599.05 329.95
L 589.45 330.95 589.45 312.4 583.95 312.95 583.95 335.75 599.05 334.2 599.05 329.95
M 607.2 310.6
L 601.75 311.15 601.75 333.95 607.2 333.4 607.2 310.6
M 629.6 316.15
Q 629.4 314.1 628.6 312.65 627.9 311.3 626.7 310.4 624.2 308.5 620.05 308.95 619.85 308.95 619.7 309 617 309.3 614.95 310.8 612.75 312.4 611.6 315.05 610.4 317.65 610.4 321
L 610.4 322.15
Q 610.4 327.5 613 330.2 613.2 330.4 613.45 330.6 614.95 331.95 617.1 332.3 618.45 332.55 620.1 332.35 622.85 332.1 624.95 330.9 627.1 329.65 628.25 327.75 628.3 327.65 628.35 327.55 628.5 327.3 628.6 327.1 629.4 325.35 629.55 323.4
L 624.05 323.95
Q 624 325.85 623 326.9 622 327.9 620.1 328.05 618.8 328.2 618 327.8 617.35 327.45 616.95 326.85 616.05 325.4 616.05 321.75
L 616.05 320.1
Q 616.05 316.7 617.05 315.1 617.7 313.9 619 313.5 619.45 313.3 620.05 313.25 622.05 313 623.05 313.8 623.95 314.55 624.1 316.35 624.1 316.5 624.1 316.7
L 629.6 316.15
M 647.95 306.45
L 632.15 308.05 632.15 330.85 647.9 329.25 647.9 325 637.65 326.05 637.65 320.6 646.35 319.7 646.35 315.6 637.65 316.5 637.65 311.75 647.95 310.7 647.95 306.45
M 558.5 320.95
Q 558.2 320.1 557.7 319.35 556.6 317.65 554.6 316.9 552.55 316.15 549.95 316.45
L 540.85 317.35 540.85 340.15 546.3 339.6 546.3 331.85 549.85 331.5
Q 554 331.05 556.45 328.8 557.1 328.2 557.55 327.5 558.8 325.65 558.8 323.2 558.8 321.95 558.5 320.95
M 550 320.65
Q 551.5 320.5 552.35 321.4 553.2 322.25 553.2 323.85 553.2 325.3 552.4 326.2 551.55 327.05 549.95 327.25
L 546.3 327.6 546.3 321.05 550 320.65
M 565.9 315.85
Q 563.55 317.5 562.35 320.15 561.1 322.9 561.1 326.25
L 561.1 327.55
Q 561.15 330.75 562.45 333.1 563.7 335.45 565.95 336.6 566.9 337.1 568.05 337.3 568.6 337.4 569.25 337.45 570.15 337.45 571.15 337.35 574.05 337.05 576.35 335.5 578.6 333.85 579.85 331.2 580.15 330.5 580.4 329.8 581.1 327.6 581.1 325.1
L 581.1 324.05
Q 581.1 321.6 580.4 319.65 580.15 318.95 579.85 318.35 578.55 315.9 576.3 314.75 574 313.6 571.1 313.9 570.75 313.95 570.45 314 569.85 314.1 569.25 314.25 567.4 314.75 565.9 315.85
M 566.7 326.55
L 566.7 324.9
Q 566.9 320.25 569.25 318.8 569.45 318.7 569.65 318.6 570.3 318.3 571.1 318.2 573.2 318 574.35 319.7 575.5 321.3 575.5 324.7
L 575.5 325.75
Q 575.5 329.1 574.35 331 573.2 332.9 571.15 333.1 570.05 333.25 569.25 332.9 569.1 332.85 568.95 332.75 568.3 332.35 567.8 331.6 566.7 329.9 566.7 326.55 Z"/>

<path fill="#4F4F4F" stroke="none" d="
M 460.2 299.1
Q 459.65 299.05 458.6 299.1 454.75 299.2 450.7 299.95 447.15 300.65 443.75 301.8 425.15 308.1 411.35 328.25 409.6 330.85 408 333.5 395 355.3 395 381.45 395 410.8 411.35 428.45 418.65 436.35 427.25 439.85 433.4 442.3 440.25 442.55 440.4 442.55 440.55 442.55 445.45 442.7 450.7 441.7 473.7 437.3 489.95 413.7 490 413.55 490.1 413.45 492.4 410.1 494.35 406.7 503.05 391.4 505.5 374
L 522.05 374.95
Q 523.8 364.45 523.8 353.4 523.8 351.1 523.75 348.9 523.75 348.75 523.75 348.65
L 505.8 348.75
Q 503.15 327.25 490.1 313.2 477.3 299.35 460.3 299.1 460.25 299.1 460.2 299.1
M 462.6 322.25
Q 463 322.2 463.4 322.25 474.6 322.4 483 331.5 491.65 340.85 493.35 355.1 493.6 357.25 493.7 359.6 493.75 361 493.75 362.45 493.75 366.85 493.2 371.05 491.3 385.35 483 397.45 481 400.35 478.9 402.85 478.75 403 478.6 403.2 476.95 405.05 475.25 406.65 467.15 414.15 457.1 416.05 453.65 416.7 450.4 416.6 450.3 416.6 450.2 416.6 445.7 416.45 441.65 414.85 436 412.55 431.2 407.35 420.45 395.7 420.45 376.4 420.45 373.05 420.75 369.85 420.8 369.55 420.85 369.25 421.9 359.6 425.85 350.95 428.05 346 431.2 341.4 439.45 329.4 450.25 324.9 451.35 324.45 452.5 324.05 454.75 323.25 457.1 322.8 459.75 322.3 462.6 322.25
M 279.5 52.55
L 229.65 52.8 192.05 163 390.85 163.05 279.5 52.55
M 390.1 51.95
L 356.9 52.1 468.7 145.2 474.55 128.25 390.1 51.95
M 464.4 51.5
L 413.9 51.8 481.05 109.25 492.95 74.7 464.4 51.5
M 711.55 146.05
L 789.95 138.6 711.55 86.3 711.55 146.05
M 811 136.6
L 811 81.55 747.5 41 711.55 44.4 711.55 64.95 796.5 138 811 136.6
M 555.9 55.25
L 532.7 57.05 508.2 166.5 677.6 150.35 555.9 55.25
M 689 145.8
L 689 138.75 610.9 50.95 571.8 54 689 145.8
M 689 44.8
L 649.95 47.85 689 105.05 689 44.8
M 769.05 277.3
Q 756.25 263.45 739.25 263.2 738.65 263.15 738.05 263.2
L 737.55 263.2
Q 733.7 263.3 729.65 264.05 726.1 264.75 722.7 265.9 715.15 268.45 708.4 273.3 698.5 280.35 690.3 292.35 682.15 304.2 678.1 317.45 673.95 330.8 673.95 345.55 673.95 374.9 690.3 392.55 697.6 400.45 706.2 403.95 712.35 406.4 719.2 406.65 719.35 406.65 719.5 406.65 724.4 406.8 729.65 405.8 752.75 401.4 769.05 377.55 781.65 359.1 784.55 337.4
L 799.35 337.6
Q 800.45 329.15 800.45 320.35 800.45 319.7 800.45 319.05
L 785.3 320
Q 784.2 293.65 769.05 277.3
M 743.15 287.65
Q 754.35 287.8 762.75 296.9 764 298.25 765.1 299.7 772.85 309.85 773.45 325 773.5 326.4 773.5 327.85 773.5 332.25 772.95 336.45 771.05 350.75 762.75 362.85 752.05 378.55 736.85 381.45 733.4 382.1 730.15 382 730.05 382 729.95 382 725.45 381.85 721.4 380.25 715.75 377.95 710.95 372.75 700.2 361.1 700.2 341.8 700.2 325.2 708.15 311.3 709.45 309 710.95 306.8 714.45 301.7 718.4 298 724.75 292 732.25 289.45 734.5 288.65 736.85 288.2 739.5 287.7 742.35 287.65 742.75 287.6 743.15 287.65 Z"/>

<path fill="#8C8C8C" stroke="none" d="
M 463.4 322.25
Q 463 322.2 462.6 322.25 459.75 322.3 457.1 322.8 454.75 323.25 452.5 324.05 451.35 324.45 450.25 324.9 439.45 329.4 431.2 341.4 428.05 346 425.85 350.95 421.9 359.6 420.85 369.25 420.8 369.55 420.75 369.85 420.45 373.05 420.45 376.4 420.45 395.7 431.2 407.35 436 412.55 441.65 414.85 445.7 416.45 450.2 416.6 450.3 416.6 450.4 416.6 453.65 416.7 457.1 416.05 467.15 414.15 475.25 406.65 476.95 405.05 478.6 403.2 478.75 403 478.9 402.85 481 400.35 483 397.45 491.3 385.35 493.2 371.05 493.75 366.85 493.75 362.45 493.75 361 493.7 359.6 493.6 357.25 493.35 355.1 491.65 340.85 483 331.5 474.6 322.4 463.4 322.25
M 524.4 43.95
L 511.05 44.95 226.5 44.95 183.8 170.6 468.35 170.6 324.7 262.05 324.7 262.1 311.3 313.4 284.55 330.9 215.95 330.9 179.9 294.85 187.1 287.6 75.05 287.6 82.95 295.5 47.55 330.9 0 330.9 0 374.25 56.55 374.25 56.55 336.2 94.6 298.15 164.9 298.15 199.05 332.3 199.05 374.25 284.55 374.25 379.8 364.05
Q 382.85 340.75 394.6 320.35 397.05 316 399.95 311.75 402.1 308.65 404.3 305.8 404.31875 305.77578125 404.35 305.75 424.2255859375 280.0951171875 451.25 274.95 466 272.15 478.7 276.3 491.75 280.55 502.55 292.2 522.45 313.75 523.75 348.65
L 523.75 183.8 494.5 169.4 524.4 43.95
M 501 51.3
L 492.95 74.7 481.05 109.25 474.55 128.25 468.7 145.2 462.55 163.05 390.85 163.05 192.05 163 229.65 52.8 279.5 52.55 356.9 52.1 390.1 51.95 413.9 51.8 464.4 51.5 501 51.3
M 337.1 295.5
L 347.1 258.05 388.6 232.3 379 266.35 337.1 295.5
M 500.55 35.1
L 522.8 6.25 448.95 9.35 422.05 35.1 500.55 35.1
M 701.25 219.1
Q 696.25 225.4 691.9 232.65 678.15 255.55 671.2 287.35 673.7 282.95 676.6 278.7 679.85 273.95 683.3 269.85 691.3 260.15 700.45 253.7 713.1 244.75 727.9 241.9 757.95 236.2 779.2 259.15 800.1 281.75 800.45 319.05
L 822.5 316.7 822.5 21.75 701.25 30.8 701.25 219.1
M 811 34.95
L 811 81.55 811 136.6 796.5 138 789.95 138.6 711.55 146.05 711.55 86.3 711.55 64.95 711.55 44.4 747.5 41 811 34.95
M 656.1 176.3
L 656.1 183.35 694.3 178.4 694.3 171.65 656.1 176.3
M 762.75 296.9
Q 754.35 287.8 743.15 287.65 742.75 287.6 742.35 287.65 739.5 287.7 736.85 288.2 734.5 288.65 732.25 289.45 724.75 292 718.4 298 714.45 301.7 710.95 306.8 709.45 309 708.15 311.3 700.2 325.2 700.2 341.8 700.2 361.1 710.95 372.75 715.75 377.95 721.4 380.25 725.45 381.85 729.95 382 730.05 382 730.15 382 733.4 382.1 736.85 381.45 752.05 378.55 762.75 362.85 771.05 350.75 772.95 336.45 773.5 332.25 773.5 327.85 773.5 326.4 773.45 325 772.85 309.85 765.1 299.7 764 298.25 762.75 296.9 Z"/>

<path fill="#5E5E5E" stroke="none" d="
M 379.4 394.15
Q 378.7 387.85 378.7 381.05 378.7 372.35 379.8 364.05
L 284.55 374.25 348.65 398.3 365.7 396 379.4 394.15
M 800.45 319.05
Q 800.45 319.7 800.45 320.35 800.45 329.15 799.35 337.6
L 818.35 335 822.5 316.7 800.45 319.05
M 655.65 356.95
Q 655.35 352.6 655.35 348 655.35 341.15 656.05 334.5
L 525.55 348.45 525.55 348.5
Q 526.3 366.15 522.05 374.95
L 546.95 371.6 644.4 358.45 655.65 356.95 Z"/>

<path fill="#A3A3A3" stroke="none" d="
M 324.7 262.1
L 324.6 262.1 284.55 287.6 284.55 330.9 311.3 313.4 324.7 262.1
M 448.95 9.35
L 448.95 5.55 418.55 35.1 422.05 35.1 448.95 9.35
M 347.1 258.05
L 337.1 295.5 379 266.35 388.6 232.3 347.1 258.05
M 642.15 21.35
L 623.9 0 601.7 0 588.8 35.1 650.15 30.65 642.15 21.35 Z"/>

<path fill="#A0A0A0" stroke="none" d="
M 324.6 262.1
L 324.7 262.05 468.35 170.6 183.8 170.6 7 283.15 70.6 283.15 75.05 287.6 187.1 287.6 192.65 282.05 281.1 282.05 324.6 262.1
M 338.35 181.15
Q 346.3 178.6 351.7 178.6 359.35 178.6 357.75 182.6 356.2 186.6 345.85 193.7
L 335.75 193.7
Q 341.5 189.9 342.35 188.2 343.05 186.55 339.35 186.55 335.5 186.55 329.45 189.4 323.35 192.15 313.65 198.4
L 308.95 201.4
Q 298.55 208.15 295.75 211.05 293.05 213.9 297.2 213.9 300.65 213.9 304.95 212.3 309.4 210.6 315.1 207.05
L 325.2 207.05
Q 318.15 211.4 310.75 214.8 303.45 218.15 296.7 220 294.75 220.55 292.95 220.9 288.45 221.85 284.9 221.85 276.55 221.85 280.1 216.45 281.35 214.55 284 212.15 289 207.6 298.95 201.15
L 302.2 199.1
Q 311.75 192.9 321.15 188.3 330.4 183.65 338.35 181.15
M 373 179.2
L 402.05 179.2 389.95 187.05 371.05 187.05 357.4 195.85 373.35 195.85 361.7 203.4 345.75 203.4 330.2 213.45 349.05 213.45 336.95 221.3 307.95 221.3 373 179.2
M 221.5 179.2
Q 226.3 179.2 227.35 181 228.4 182.75 225.25 186.05 222.2 189.35 215.85 193.45 206.3 199.65 196.15 203.35 187.55 206.45 180.65 206.9 179.5 206.95 178.4 206.95
L 171.95 206.95 149.8 221.3 139.7 221.3 204.75 179.2 221.5 179.2
M 247.8 181.2
Q 256.05 178.6 261.5 178.6 266.85 178.6 267.1 181.15 267.3 183.7 262.4 188.4 257.4 193.1 248.15 199.15
L 245.1 201.1
Q 235.55 207.3 225.9 212.05 216.3 216.7 208.2 219.3 200 221.85 194.65 221.85 189.3 221.85 188.8 219.45 188.55 216.9 193.3 212.35 198.1 207.7 207.15 201.8
L 210.85 199.4
Q 220.4 193.2 230.05 188.45 239.55 183.8 247.8 181.2
M 284.2 179.2
L 294.3 179.2 241.35 213.45 259.05 213.45 246.95 221.3 219.15 221.3 284.2 179.2
M 262 221.3
L 251.9 221.3 316.95 179.2 327.05 179.2 262 221.3
M 250.1 189.8
Q 253.05 186.55 249.15 186.55 241.5 186.55 223.3 198.05
L 218.55 201.1
Q 209 207.3 205.9 210.6 202.8 213.95 206.85 213.95 210.7 213.95 217.85 210.65 224.95 207.4 234.4 201.3
L 237.45 199.3
Q 247.1 193.1 250.1 189.8
M 205.45 193.55
Q 210 190.55 211.1 188.85 212.25 187.05 209.55 187.05
L 202.75 187.05 184.05 199.15 190.7 199.15
Q 191.1 199.15 191.5 199.15 194.15 198.95 197.4 197.7 201.25 196.25 205.45 193.55
M 656.1 183.35
L 656.1 176.3 645.3 171.35 645.3 178.7 656.1 183.35
M 699.7 30.9
L 701.25 30.8 822.5 21.75 642.15 21.35 650.15 30.65 588.8 35.1 500.55 35.1 422.05 35.1 418.55 35.1 358.65 35.1 226.5 44.95 511.05 44.95 524.4 43.95 527.45 43.75 699.7 30.9 Z"/>

<path fill="#6B6B6B" stroke="none" d="
M 691.25 230.95
Q 695.1 224.6 699.7 218.4
L 699.7 30.9 527.45 43.75 497.3 168.4 525.55 182.7 525.55 348.45 656.05 334.5
Q 656.75 327.9 658.1 321.5 661.9 303.65 671.05 287.65 674.85 257.7 691.25 230.95
M 649.95 47.85
L 689 44.8 689 105.05 689 138.75 689 145.8 689 149.25 677.6 150.35 508.2 166.5 532.7 57.05 555.9 55.25 571.8 54 610.9 50.95 649.95 47.85
M 694.3 171.65
L 694.3 178.4 656.1 183.35 645.3 178.7 645.3 171.35 683.5 166.1 694.3 171.65
M 562.35 320.15
Q 563.55 317.5 565.9 315.85 567.4 314.75 569.25 314.25 569.85 314.1 570.45 314 570.75 313.95 571.1 313.9 574 313.6 576.3 314.75 578.55 315.9 579.85 318.35 580.15 318.95 580.4 319.65 581.1 321.6 581.1 324.05
L 581.1 325.1
Q 581.1 327.6 580.4 329.8 580.15 330.5 579.85 331.2 578.6 333.85 576.35 335.5 574.05 337.05 571.15 337.35 570.15 337.45 569.25 337.45 568.6 337.4 568.05 337.3 566.9 337.1 565.95 336.6 563.7 335.45 562.45 333.1 561.15 330.75 561.1 327.55
L 561.1 326.25
Q 561.1 322.9 562.35 320.15
M 557.7 319.35
Q 558.2 320.1 558.5 320.95 558.8 321.95 558.8 323.2 558.8 325.65 557.55 327.5 557.1 328.2 556.45 328.8 554 331.05 549.85 331.5
L 546.3 331.85 546.3 339.6 540.85 340.15 540.85 317.35 549.95 316.45
Q 552.55 316.15 554.6 316.9 556.6 317.65 557.7 319.35
M 632.15 308.05
L 647.95 306.45 647.95 310.7 637.65 311.75 637.65 316.5 646.35 315.6 646.35 319.7 637.65 320.6 637.65 326.05 647.9 325 647.9 329.25 632.15 330.85 632.15 308.05
M 628.6 312.65
Q 629.4 314.1 629.6 316.15
L 624.1 316.7
Q 624.1 316.5 624.1 316.35 623.95 314.55 623.05 313.8 622.05 313 620.05 313.25 619.45 313.3 619 313.5 617.7 313.9 617.05 315.1 616.05 316.7 616.05 320.1
L 616.05 321.75
Q 616.05 325.4 616.95 326.85 617.35 327.45 618 327.8 618.8 328.2 620.1 328.05 622 327.9 623 326.9 624 325.85 624.05 323.95
L 629.55 323.4
Q 629.4 325.35 628.6 327.1 628.5 327.3 628.35 327.55 628.3 327.65 628.25 327.75 627.1 329.65 624.95 330.9 622.85 332.1 620.1 332.35 618.45 332.55 617.1 332.3 614.95 331.95 613.45 330.6 613.2 330.4 613 330.2 610.4 327.5 610.4 322.15
L 610.4 321
Q 610.4 317.65 611.6 315.05 612.75 312.4 614.95 310.8 617 309.3 619.7 309 619.85 308.95 620.05 308.95 624.2 308.5 626.7 310.4 627.9 311.3 628.6 312.65
M 601.75 311.15
L 607.2 310.6 607.2 333.4 601.75 333.95 601.75 311.15
M 589.45 330.95
L 599.05 329.95 599.05 334.2 583.95 335.75 583.95 312.95 589.45 312.4 589.45 330.95
M 552.35 321.4
Q 551.5 320.5 550 320.65
L 546.3 321.05 546.3 327.6 549.95 327.25
Q 551.55 327.05 552.4 326.2 553.2 325.3 553.2 323.85 553.2 322.25 552.35 321.4
M 566.7 324.9
L 566.7 326.55
Q 566.7 329.9 567.8 331.6 568.3 332.35 568.95 332.75 569.1 332.85 569.25 332.9 570.05 333.25 571.15 333.1 573.2 332.9 574.35 331 575.5 329.1 575.5 325.75
L 575.5 324.7
Q 575.5 321.3 574.35 319.7 573.2 318 571.1 318.2 570.3 318.3 569.65 318.6 569.45 318.7 569.25 318.8 566.9 320.25 566.7 324.9 Z"/>
</g>

<g id="scene3_0_Layer0_0_FILL">
<path fill="#424242" stroke="none" d="
M 961.5 799.8
L 961.5 780.9 632.7 780.9 632.7 799.8 961.5 799.8
M 563.7 780.9
L 313.6 780.9 313.6 799.8 563.7 799.8 563.7 780.9
M 186.45 780.9
L 0 780.9 0 799.8 186.45 799.8 186.45 780.9
M 1330.1 799.8
L 1330.1 780.9 983.05 780.9 983.05 799.8 1330.1 799.8
M 1649.2 780.9
L 1399.1 780.9 1399.1 799.8 1649.2 799.8 1649.2 780.9
M 1922.95 780.9
L 1776.35 780.9 1776.35 799.8 1922.95 799.8 1922.95 780.9 Z"/>

<path fill="#666666" stroke="none" d="
M 722.45 979.5
L 722.45 1084.3 894.65 1084.3 894.65 979.5 722.45 979.5
M 1224.35 1084.3
L 1224.35 981.75 1052.15 981.75 1052.15 1084.3 1224.35 1084.3
M 142.6 969.8
L 71.3 969.8 71.3 1084.3 142.6 1084.3 142.6 969.8
M 496.85 969.8
L 327.1 969.8 327.1 1084.3 496.85 1084.3 496.85 969.8
M 481.95 420.15
Q 480.45 420.9 478.65 420.9 476 420.9 474.05 419.25
L 439.45 453.8 515.6 453.8 481.95 420.15
M 1619.7 1084.3
L 1619.7 972.05 1449.95 972.05 1449.95 1084.3 1619.7 1084.3
M 1882.9 972.05
L 1842.85 972.05 1842.85 1084.3 1882.9 1084.3 1882.9 972.05
M 1330.1 642.45
L 1375.4 642.45 1399.1 642.45 1399.1 780.9 1649.2 780.9 1649.2 642.45 1752.65 642.45 1776.35 642.45 1776.35 780.9 1922.95 780.9 1922.95 721.2 1881.95 721.2 1836.45 721.2 1832.25 735.5 1827.75 738.7 1827.75 713.7 1800.6 698.3 1800.6 643.5 1808.25 604.4 1800.6 599.6 1806.65 593.8 1800.6 590.9 1800.6 455.05 1836.95 455.05 1897.9 420.8
Q 1897.9 420.55 1897.9 420.3 1897.9 416.8 1900.35 414.3 1902.85 411.85 1906.35 411.85 1909.85 411.85 1912.3 414.3 1914.35 416.35 1914.75 419.1 1914.8 419.7 1914.8 420.3 1914.8 423.8 1912.3 426.25 1909.85 428.75 1906.35 428.75 1902.85 428.75 1900.35 426.25 1899.1 425 1898.5 423.45
L 1843.8 455.05 1922.95 455.05 1922.95 424.95 1922.95 424.35 1922.95 297.8 0 297.8 0 780.9 186.45 780.9 186.45 642.45 210.15 642.45 313.6 642.45 313.6 780.9 563.7 780.9 563.7 708.8 549.55 713.85 560.45 716.8 556 737.25 552.15 738.7 540.1 727.6 380.8 727.6 380.8 713.85 380.8 594.85 392 587.35 382.3 587.35 394 579.35 380.8 570.85 380.8 486.75 380.8 453.8 434.4 453.8 472.55 417.6
Q 471.35 415.85 471.35 413.6 471.35 410.6 473.5 408.45 475.65 406.3 478.65 406.3 481.65 406.3 483.8 408.45 485.95 410.6 485.95 413.6 485.95 416.35 484.15 418.4
L 518.4 453.8 574.8 453.8 574.8 477.85 553.05 486.75 574.8 494.35 574.8 642.45 587.4 642.45 632.7 642.45 632.7 780.9 961.5 780.9 961.45 642.45 983.05 642.45 983.05 780.9 1330.1 780.9 1330.1 642.45
M 1526.7 419.1
Q 1526.75 419.7 1526.75 420.3 1526.75 423.8 1524.25 426.25 1521.8 428.75 1518.3 428.75 1514.8 428.75 1512.3 426.25 1510 423.95 1509.85 420.8 1509.85 420.55 1509.85 420.3 1509.85 416.8 1512.3 414.3 1514.8 411.85 1518.3 411.85 1521.8 411.85 1524.25 414.3 1526.3 416.35 1526.7 419.1
M 894.65 452.75
L 894.65 476.8 872.9 485.7 894.65 493.3 894.65 703.8 869.4 712.8 880.3 715.75 875.85 736.2 872 737.65 859.95 726.55 700.65 726.55 700.65 712.8 700.65 593.8 711.85 586.3 702.15 586.3 713.85 578.3 700.65 569.8 700.65 485.7 700.65 452.75 754.25 452.75 792.4 416.55
Q 791.2 414.8 791.2 412.55 791.2 409.55 793.35 407.4 795.5 405.25 798.5 405.25 801.5 405.25 803.65 407.4 805.8 409.55 805.8 412.55 805.8 415.3 804 417.35
L 838.25 452.75 894.65 452.75
M 1232.6 455.05
L 1263.45 455.05 1263.45 594.05 1252.75 609.05 1254.5 609.05 1257.35 612.45 1255.25 617.1 1254.95 613.75 1251.25 615.8 1263.45 625.5 1263.45 668.85 1263.45 721.2 1143.55 721.2 1098.05 721.2 1093.85 735.5 1089.35 738.7 1089.35 713.7 1062.2 698.3 1062.2 643.5 1069.85 604.4 1062.2 599.6 1068.25 593.8 1062.2 590.9 1062.2 455.05 1098.55 455.05 1159.5 420.8
Q 1159.5 420.55 1159.5 420.3 1159.5 416.8 1161.95 414.3 1164.45 411.85 1167.95 411.85 1171.45 411.85 1173.9 414.3 1175.95 416.35 1176.35 419.1
L 1232.6 455.05
M 142.55 414.7
Q 142.6 415.3 142.6 415.9 142.6 419.4 140.1 421.85 137.65 424.35 134.15 424.35 130.65 424.35 128.15 421.85 125.85 419.55 125.7 416.4 125.7 416.15 125.7 415.9 125.7 412.4 128.15 409.9 130.65 407.45 134.15 407.45 137.65 407.45 140.1 409.9 142.15 411.95 142.55 414.7
M 1161.95 426.25
Q 1160.95 425.25 1160.35 424.1
L 1104.7 455.05 1226.8 455.05 1175.7 423.7
Q 1175.1 425.1 1173.9 426.25 1171.45 428.75 1167.95 428.75 1164.45 428.75 1161.95 426.25
M 798.5 419.85
Q 796.35 419.85 794.65 418.75
L 757.45 452.75 835.3 452.75 801.3 419.35
Q 800 419.85 798.5 419.85 Z"/>

<path fill="#565656" stroke="none" d="
M 186.45 918.4
L 186.45 864.5 0 864.5 0 918.4 186.45 918.4
M 632.7 864.5
L 587.4 918.4 961.5 918.4 961.5 864.5 632.7 864.5
M 563.7 918.4
L 563.7 864.5 313.6 864.5 210.15 918.4 563.7 918.4
M 473.5 408.45
Q 471.35 410.6 471.35 413.6 471.35 415.85 472.55 417.6 472.95 418.2 473.5 418.75 473.75 419 474.05 419.25 476 420.9 478.65 420.9 480.45 420.9 481.95 420.15 482.95 419.6 483.8 418.75 484 418.55 484.15 418.4 485.95 416.35 485.95 413.6 485.95 410.6 483.8 408.45 481.65 406.3 478.65 406.3 475.65 406.3 473.5 408.45
M 574.8 494.35
L 553.05 486.75 380.8 486.75 380.8 570.85 394 579.35 382.3 587.35 392 587.35 380.8 594.85 380.8 713.85 549.55 713.85 563.7 708.8 563.7 642.45 574.8 642.45 574.8 494.35
M 432.2 531.75
Q 451.35 504.85 478.4 504.85 505.45 504.85 524.6 531.75 543.75 558.7 543.75 596.75 543.75 634.8 524.6 661.7 505.45 688.65 478.4 688.65 451.35 688.65 432.2 661.7 413.05 634.8 413.05 596.75 413.05 558.7 432.2 531.75
M 478.4 519.35
Q 455.6 519.35 439.45 542 423.35 564.7 423.35 596.8 423.35 628.85 439.45 651.55 455.6 674.25 478.4 674.25 501.2 674.25 517.35 651.55 533.5 628.85 533.5 596.8 533.5 564.7 517.35 542 501.2 519.35 478.4 519.35
M 448.95 555.35
Q 461.15 538.2 478.4 538.2 495.65 538.2 507.9 555.35 520.1 572.55 520.1 596.8 520.1 621.1 507.9 638.25 495.65 655.45 478.4 655.45 461.15 655.45 448.95 638.25 436.7 621.1 436.7 596.8 436.7 572.55 448.95 555.35
M 478.35 553.65
Q 465.65 553.65 456.65 566.25 447.65 578.9 447.65 596.8 447.65 614.65 456.65 627.3 465.65 639.95 478.35 639.95 491.05 639.95 500.05 627.3 509.05 614.65 509.05 596.8 509.05 578.9 500.05 566.25 491.05 553.65 478.35 553.65
M 464.8 577.7
Q 470.4 569.8 478.35 569.8 486.3 569.8 491.9 577.7 497.55 585.6 497.55 596.8 497.55 607.95 491.9 615.85 486.3 623.75 478.35 623.75 470.4 623.75 464.8 615.85 459.15 607.95 459.15 596.8 459.15 585.6 464.8 577.7
M 1375.4 918.4
L 1330.1 864.5 983.05 864.5 983.05 918.4 1375.4 918.4
M 1752.6 918.4
L 1649.2 864.5 1399.1 864.5 1399.1 918.4 1752.6 918.4
M 1922.95 918.4
L 1922.95 864.5 1776.35 864.5 1776.35 918.4 1922.95 918.4
M 1922.95 972.05
L 1882.9 972.05 1882.9 1084.3 1842.85 1084.3 1716.75 1084.3 1716.75 972.05 1619.7 972.05 1619.7 1084.3 1449.95 1084.3 1287.4 1084.3 1287.4 981.75 1224.35 981.75 1224.35 1084.3 1052.15 1084.3 894.65 1084.3 722.45 1084.3 722.45 979.5 659.4 979.5 659.4 1084.3 496.85 1084.3 327.1 1084.3 327.1 969.8 230.05 969.8 230.05 1084.3 142.6 1084.3 71.3 1084.3 71.3 969.8 0 969.8 0 1086.55 1922.95 1086.55 1922.95 972.05
M 1926.2 576.2
Q 1932 581.2 1934.75 586
L 1934.75 574.45
Q 1931.2 575.75 1926.2 576.2
M 1923.95 569.9
Q 1928.2 564.55 1934.75 561.6
L 1934.75 560.45 1930.25 561.25 1923.95 569.9
M 1934.75 455.05
L 1922.95 455.05 1843.8 455.05 1836.95 455.05 1800.6 455.05 1800.6 590.9 1806.65 593.8 1800.6 599.6 1808.25 604.4 1800.6 643.5 1800.6 698.3 1827.75 713.7 1836.45 721.2 1881.95 721.2
Q 1866.85 685.8 1869.55 623.9
L 1878 639.45
Q 1892 645.4 1905.95 639.45
L 1921.95 615.5
Q 1922.45 616.75 1922.95 617.95 1927.5 628.75 1934.75 638.9
L 1934.75 597.2
Q 1929.8 604.05 1922.95 607.5 1920.4 608.8 1917.6 609.6 1913.55 622.9 1903.2 633.75 1894.3 638.65 1882.5 633.75 1873.15 623.7 1870.35 611.75 1857.8 607.35 1853.75 599.2 1854.8 586.5 1864.65 577.35 1851.35 579.25 1844.55 565.85 1851.3 556 1865.5 567.3
L 1857.75 554.9 1809.45 535.35 1856.6 546.85 1823.8 496.25 1867.55 544.55 1886.55 489.35 1872.85 565.55
Q 1894.4 555.95 1915.9 565.55
L 1908.4 489.9 1925.65 545.7 1934.75 538.95 1934.75 455.05
M 1912.3 414.3
Q 1909.85 411.85 1906.35 411.85 1902.85 411.85 1900.35 414.3 1897.9 416.8 1897.9 420.3 1897.9 420.55 1897.9 420.8 1897.95 422.2 1898.5 423.45 1899.1 425 1900.35 426.25 1902.85 428.75 1906.35 428.75 1909.85 428.75 1912.3 426.25 1914.8 423.8 1914.8 420.3 1914.8 419.7 1914.75 419.1 1914.35 416.35 1912.3 414.3
M 142.6 415.9
Q 142.6 415.3 142.55 414.7 142.15 411.95 140.1 409.9 137.65 407.45 134.15 407.45 130.65 407.45 128.15 409.9 125.7 412.4 125.7 415.9 125.7 416.15 125.7 416.4 125.85 419.55 128.15 421.85 130.65 424.35 134.15 424.35 137.65 424.35 140.1 421.85 142.6 419.4 142.6 415.9
M 1175.7 423.7
Q 1176.4 422.15 1176.4 420.3 1176.4 419.7 1176.35 419.1 1175.95 416.35 1173.9 414.3 1171.45 411.85 1167.95 411.85 1164.45 411.85 1161.95 414.3 1159.5 416.8 1159.5 420.3 1159.5 420.55 1159.5 420.8 1159.6 422.55 1160.35 424.1 1160.95 425.25 1161.95 426.25 1164.45 428.75 1167.95 428.75 1171.45 428.75 1173.9 426.25 1175.1 425.1 1175.7 423.7
M 1232.6 455.05
L 1226.8 455.05 1104.7 455.05 1098.55 455.05 1062.2 455.05 1062.2 590.9 1068.25 593.8 1062.2 599.6 1069.85 604.4 1062.2 643.5 1062.2 698.3 1089.35 713.7 1098.05 721.2 1143.55 721.2
Q 1128.45 685.8 1131.15 623.9
L 1139.6 639.45
Q 1153.6 645.4 1167.55 639.45
L 1183.55 615.5
Q 1193.15 639.9 1216.2 661.2 1239.85 672.2 1263.45 668.85
L 1263.45 625.5 1251.25 615.8 1254.95 613.75 1254.5 609.05 1252.75 609.05 1263.45 594.05 1263.45 455.05 1232.6 455.05
M 1204.85 558.85
Q 1207.9 574.3 1187.8 576.2 1198.2 585.15 1198.75 593.45 1191.55 606 1179.2 609.6 1175.15 622.9 1164.8 633.75 1155.9 638.65 1144.1 633.75 1134.75 623.7 1131.95 611.75 1119.4 607.35 1115.35 599.2 1116.4 586.5 1126.25 577.35 1112.95 579.25 1106.15 565.85 1112.9 556 1127.1 567.3
L 1119.35 554.9 1071.05 535.35 1118.2 546.85 1085.4 496.25 1129.15 544.55 1148.15 489.35 1134.45 565.55
Q 1156 555.95 1177.5 565.55
L 1170 489.9 1187.25 545.7 1243.05 504.3 1198.75 550.3 1250.55 550.3 1204.85 558.85
M 1204.85 558.85
L 1191.85 561.25 1185.55 569.9
Q 1192.25 561.45 1204.85 558.85
M 798.5 405.25
Q 795.5 405.25 793.35 407.4 791.2 409.55 791.2 412.55 791.2 414.8 792.4 416.55 792.8 417.15 793.35 417.7 793.95 418.3 794.65 418.75 796.35 419.85 798.5 419.85 800 419.85 801.3 419.35 802.55 418.8 803.65 417.7 803.85 417.5 804 417.35 805.8 415.3 805.8 412.55 805.8 409.55 803.65 407.4 801.5 405.25 798.5 405.25
M 894.65 493.3
L 872.9 485.7 700.65 485.7 700.65 569.8 713.85 578.3 702.15 586.3 711.85 586.3 700.65 593.8 700.65 712.8 869.4 712.8 894.65 703.8 894.65 493.3
M 752.05 530.7
Q 771.2 503.8 798.25 503.8 825.3 503.8 844.45 530.7 863.6 557.65 863.6 595.7 863.6 633.75 844.45 660.65 825.3 687.6 798.25 687.6 771.2 687.6 752.05 660.65 732.9 633.75 732.9 595.7 732.9 557.65 752.05 530.7
M 798.25 518.3
Q 775.45 518.3 759.3 540.95 743.2 563.65 743.2 595.75 743.2 627.8 759.3 650.5 775.45 673.2 798.25 673.2 821.05 673.2 837.2 650.5 853.35 627.8 853.35 595.75 853.35 563.65 837.2 540.95 821.05 518.3 798.25 518.3
M 768.8 554.3
Q 781 537.15 798.25 537.15 815.5 537.15 827.75 554.3 839.95 571.5 839.95 595.75 839.95 620.05 827.75 637.2 815.5 654.4 798.25 654.4 781 654.4 768.8 637.2 756.55 620.05 756.55 595.75 756.55 571.5 768.8 554.3
M 798.2 552.6
Q 785.5 552.6 776.5 565.2 767.5 577.85 767.5 595.75 767.5 613.6 776.5 626.25 785.5 638.9 798.2 638.9 810.9 638.9 819.9 626.25 828.9 613.6 828.9 595.75 828.9 577.85 819.9 565.2 810.9 552.6 798.2 552.6
M 784.65 576.65
Q 790.25 568.75 798.2 568.75 806.15 568.75 811.75 576.65 817.4 584.55 817.4 595.75 817.4 606.9 811.75 614.8 806.15 622.7 798.2 622.7 790.25 622.7 784.65 614.8 779 606.9 779 595.75 779 584.55 784.65 576.65
M 1526.75 420.3
Q 1526.75 419.7 1526.7 419.1 1526.3 416.35 1524.25 414.3 1521.8 411.85 1518.3 411.85 1514.8 411.85 1512.3 414.3 1509.85 416.8 1509.85 420.3 1509.85 420.55 1509.85 420.8 1510 423.95 1512.3 426.25 1514.8 428.75 1518.3 428.75 1521.8 428.75 1524.25 426.25 1526.75 423.8 1526.75 420.3
M 1922.95 4.3
L 1922.95 0 0 0 0 297.8 1922.95 297.8 1922.95 33.35 1848.85 84.1 1804.25 121.25 1205.9 121.25 1172.45 84.1 1113.55 32.4 1113.55 4.3 1922.95 4.3
M 1852.2 208.25
L 1802.95 242 1773.85 266.25 1383.35 266.25 1361.5 242 1323.05 208.25 1323.05 189.9 1852.2 189.9 1852.2 208.25
M 817.4 4.3
L 817.4 32.4 758.5 84.1 725.05 121.25 126.7 121.25 82.1 84.1 6.65 32.4 6.65 4.3 817.4 4.3
M 607.9 208.25
L 569.45 242 547.6 266.25 157.1 266.25 128 242 78.75 208.25 78.75 189.9 607.9 189.9 607.9 208.25 Z"/>

<path fill="#606060" stroke="none" d="
M 186.45 864.5
L 186.45 799.8 0 799.8 0 864.5 186.45 864.5
M 563.7 864.5
L 563.7 799.8 313.6 799.8 313.6 864.5 563.7 864.5
M 632.7 799.8
L 632.7 864.5 961.5 864.5 961.5 799.8 632.7 799.8
M 1330.1 864.5
L 1330.1 799.8 983.05 799.8 983.05 864.5 1330.1 864.5
M 1649.2 864.5
L 1649.2 799.8 1399.1 799.8 1399.1 864.5 1649.2 864.5
M 1922.95 864.5
L 1922.95 799.8 1776.35 799.8 1776.35 864.5 1922.95 864.5 Z"/>

<path fill="#383838" stroke="none" d="
M 560.45 716.8
L 540.1 727.6 552.15 738.7 556 737.25 560.45 716.8
M 880.3 715.75
L 859.95 726.55 872 737.65 875.85 736.2 880.3 715.75 Z"/>

<path fill="#A0A0A0" stroke="none" d="
M 632.7 642.45
L 587.4 642.45 587.4 918.4 632.7 864.5 632.7 799.8 632.7 780.9 632.7 642.45
M 313.6 642.45
L 210.15 642.45 210.15 918.4 313.6 864.5 313.6 799.8 313.6 780.9 313.6 642.45
M 1752.65 642.45
L 1649.2 642.45 1649.2 780.9 1649.2 799.8 1649.2 864.5 1752.6 918.4 1752.65 918.4 1752.65 642.45
M 1375.4 642.45
L 1330.1 642.45 1330.1 780.9 1330.1 799.8 1330.1 864.5 1375.4 918.4 1375.4 642.45
M 1848.85 84.1
L 1893.45 46.95 1138.95 46.95 1172.45 84.1 1205.9 121.25 1804.25 121.25 1848.85 84.1
M 569.45 242
L 591.3 217.75 98.9 217.75 128 242 157.1 266.25 547.6 266.25 569.45 242
M 758.5 84.1
L 792 46.95 37.5 46.95 82.1 84.1 126.7 121.25 725.05 121.25 758.5 84.1
M 1802.95 242
L 1832.05 217.75 1339.65 217.75 1361.5 242 1383.35 266.25 1773.85 266.25 1802.95 242 Z"/>

<path fill="#6B6B6B" stroke="none" d="
M 587.4 642.45
L 574.8 642.45 563.7 642.45 563.7 708.8 563.7 780.9 563.7 799.8 563.7 864.5 563.7 918.4 587.4 918.4 587.4 642.45
M 210.15 642.45
L 186.45 642.45 186.45 780.9 186.45 799.8 186.45 864.5 186.45 918.4 210.15 918.4 210.15 642.45
M 961.45 642.45
L 961.5 780.9 961.5 799.8 961.5 864.5 961.5 918.4 983.05 918.4 983.05 864.5 983.05 799.8 983.05 780.9 983.05 642.45 961.45 642.45
M 1776.35 642.45
L 1752.65 642.45 1752.65 918.4 1776.35 918.4 1776.35 864.5 1776.35 799.8 1776.35 780.9 1776.35 642.45
M 1399.1 642.45
L 1375.4 642.45 1375.4 918.4 1399.1 918.4 1399.1 864.5 1399.1 799.8 1399.1 780.9 1399.1 642.45 Z"/>

<path fill="#303030" stroke="none" d="
M 380.8 713.85
L 380.8 727.6 540.1 727.6 560.45 716.8 549.55 713.85 380.8 713.85
M 478.4 504.85
Q 451.35 504.85 432.2 531.75 413.05 558.7 413.05 596.75 413.05 634.8 432.2 661.7 451.35 688.65 478.4 688.65 505.45 688.65 524.6 661.7 543.75 634.8 543.75 596.75 543.75 558.7 524.6 531.75 505.45 504.85 478.4 504.85
M 439.45 542
Q 455.6 519.35 478.4 519.35 501.2 519.35 517.35 542 533.5 564.7 533.5 596.8 533.5 628.85 517.35 651.55 501.2 674.25 478.4 674.25 455.6 674.25 439.45 651.55 423.35 628.85 423.35 596.8 423.35 564.7 439.45 542
M 478.4 538.2
Q 461.15 538.2 448.95 555.35 436.7 572.55 436.7 596.8 436.7 621.1 448.95 638.25 461.15 655.45 478.4 655.45 495.65 655.45 507.9 638.25 520.1 621.1 520.1 596.8 520.1 572.55 507.9 555.35 495.65 538.2 478.4 538.2
M 456.65 566.25
Q 465.65 553.65 478.35 553.65 491.05 553.65 500.05 566.25 509.05 578.9 509.05 596.8 509.05 614.65 500.05 627.3 491.05 639.95 478.35 639.95 465.65 639.95 456.65 627.3 447.65 614.65 447.65 596.8 447.65 578.9 456.65 566.25
M 478.35 569.8
Q 470.4 569.8 464.8 577.7 459.15 585.6 459.15 596.8 459.15 607.95 464.8 615.85 470.4 623.75 478.35 623.75 486.3 623.75 491.9 615.85 497.55 607.95 497.55 596.8 497.55 585.6 491.9 577.7 486.3 569.8 478.35 569.8
M 574.8 477.85
L 574.8 453.8 518.4 453.8 484.15 418.4
Q 484 418.55 483.8 418.75 482.95 419.6 481.95 420.15
L 515.6 453.8 439.45 453.8 474.05 419.25
Q 473.75 419 473.5 418.75 472.95 418.2 472.55 417.6
L 434.4 453.8 380.8 453.8 380.8 486.75 553.05 486.75 574.8 477.85
M 1836.45 721.2
L 1827.75 713.7 1827.75 738.7 1832.25 735.5 1836.45 721.2
M 1921.95 615.5
L 1905.95 639.45
Q 1892 645.4 1878 639.45
L 1869.55 623.9
Q 1866.85 685.8 1881.95 721.2
L 1922.95 721.2 1934.75 721.2 1934.75 638.9
Q 1927.5 628.75 1922.95 617.95 1922.45 616.75 1921.95 615.5
M 1823.8 496.25
L 1856.6 546.85 1809.45 535.35 1857.75 554.9 1865.5 567.3
Q 1851.3 556 1844.55 565.85 1851.35 579.25 1864.65 577.35 1854.8 586.5 1853.75 599.2 1857.8 607.35 1870.35 611.75 1873.15 623.7 1882.5 633.75 1894.3 638.65 1903.2 633.75 1913.55 622.9 1917.6 609.6 1920.4 608.8 1922.95 607.5 1929.8 604.05 1934.75 597.2
L 1934.75 586
Q 1932 581.2 1926.2 576.2 1931.2 575.75 1934.75 574.45
L 1934.75 561.6
Q 1928.2 564.55 1923.95 569.9
L 1930.25 561.25 1934.75 560.45 1934.75 538.95 1925.65 545.7 1908.4 489.9 1915.9 565.55
Q 1894.4 555.95 1872.85 565.55
L 1886.55 489.35 1867.55 544.55 1823.8 496.25
M 1898.5 423.45
Q 1897.95 422.2 1897.9 420.8
L 1836.95 455.05 1843.8 455.05 1898.5 423.45
M 1922.95 424.35
L 1922.95 424.95 1934.75 433.4 1934.75 431.9 1922.95 424.35
M 1263.45 668.85
Q 1239.85 672.2 1216.2 661.2 1193.15 639.9 1183.55 615.5
L 1167.55 639.45
Q 1153.6 645.4 1139.6 639.45
L 1131.15 623.9
Q 1128.45 685.8 1143.55 721.2
L 1263.45 721.2 1263.45 668.85
M 1254.5 609.05
L 1254.95 613.75 1255.25 617.1 1257.35 612.45 1254.5 609.05
M 1093.85 735.5
L 1098.05 721.2 1089.35 713.7 1089.35 738.7 1093.85 735.5
M 1160.35 424.1
Q 1159.6 422.55 1159.5 420.8
L 1098.55 455.05 1104.7 455.05 1160.35 424.1
M 1191.85 561.25
L 1204.85 558.85 1250.55 550.3 1198.75 550.3 1243.05 504.3 1187.25 545.7 1170 489.9 1177.5 565.55
Q 1156 555.95 1134.45 565.55
L 1148.15 489.35 1129.15 544.55 1085.4 496.25 1118.2 546.85 1071.05 535.35 1119.35 554.9 1127.1 567.3
Q 1112.9 556 1106.15 565.85 1112.95 579.25 1126.25 577.35 1116.4 586.5 1115.35 599.2 1119.4 607.35 1131.95 611.75 1134.75 623.7 1144.1 633.75 1155.9 638.65 1164.8 633.75 1175.15 622.9 1179.2 609.6 1191.55 606 1198.75 593.45 1198.2 585.15 1187.8 576.2 1207.9 574.3 1204.85 558.85 1192.25 561.45 1185.55 569.9
L 1191.85 561.25
M 1226.8 455.05
L 1232.6 455.05 1176.35 419.1
Q 1176.4 419.7 1176.4 420.3 1176.4 422.15 1175.7 423.7
L 1226.8 455.05
M 700.65 712.8
L 700.65 726.55 859.95 726.55 880.3 715.75 869.4 712.8 700.65 712.8
M 798.25 503.8
Q 771.2 503.8 752.05 530.7 732.9 557.65 732.9 595.7 732.9 633.75 752.05 660.65 771.2 687.6 798.25 687.6 825.3 687.6 844.45 660.65 863.6 633.75 863.6 595.7 863.6 557.65 844.45 530.7 825.3 503.8 798.25 503.8
M 759.3 540.95
Q 775.45 518.3 798.25 518.3 821.05 518.3 837.2 540.95 853.35 563.65 853.35 595.75 853.35 627.8 837.2 650.5 821.05 673.2 798.25 673.2 775.45 673.2 759.3 650.5 743.2 627.8 743.2 595.75 743.2 563.65 759.3 540.95
M 798.25 537.15
Q 781 537.15 768.8 554.3 756.55 571.5 756.55 595.75 756.55 620.05 768.8 637.2 781 654.4 798.25 654.4 815.5 654.4 827.75 637.2 839.95 620.05 839.95 595.75 839.95 571.5 827.75 554.3 815.5 537.15 798.25 537.15
M 776.5 565.2
Q 785.5 552.6 798.2 552.6 810.9 552.6 819.9 565.2 828.9 577.85 828.9 595.75 828.9 613.6 819.9 626.25 810.9 638.9 798.2 638.9 785.5 638.9 776.5 626.25 767.5 613.6 767.5 595.75 767.5 577.85 776.5 565.2
M 798.2 568.75
Q 790.25 568.75 784.65 576.65 779 584.55 779 595.75 779 606.9 784.65 614.8 790.25 622.7 798.2 622.7 806.15 622.7 811.75 614.8 817.4 606.9 817.4 595.75 817.4 584.55 811.75 576.65 806.15 568.75 798.2 568.75
M 894.65 476.8
L 894.65 452.75 838.25 452.75 804 417.35
Q 803.85 417.5 803.65 417.7 802.55 418.8 801.3 419.35
L 835.3 452.75 757.45 452.75 794.65 418.75
Q 793.95 418.3 793.35 417.7 792.8 417.15 792.4 416.55
L 754.25 452.75 700.65 452.75 700.65 485.7 872.9 485.7 894.65 476.8 Z"/>

<path fill="#4C4C4C" stroke="none" d="
M 1882.9 972.05
L 1922.95 972.05 1922.95 918.4 1776.35 918.4 1752.65 918.4 1752.6 918.4 1399.1 918.4 1375.4 918.4 983.05 918.4 961.5 918.4 587.4 918.4 563.7 918.4 210.15 918.4 186.45 918.4 0 918.4 0 969.8 71.3 969.8 142.6 969.8 142.6 1084.3 230.05 1084.3 230.05 969.8 327.1 969.8 496.85 969.8 496.85 1084.3 659.4 1084.3 659.4 979.5 722.45 979.5 894.65 979.5 894.65 1084.3 1052.15 1084.3 1052.15 981.75 1224.35 981.75 1287.4 981.75 1287.4 1084.3 1449.95 1084.3 1449.95 972.05 1619.7 972.05 1716.75 972.05 1716.75 1084.3 1842.85 1084.3 1842.85 972.05 1882.9 972.05 Z"/>

<path fill="#848484" stroke="none" d="
M 1922.95 33.35
L 1924.3 32.4 1113.55 32.4 1172.45 84.1 1138.95 46.95 1893.45 46.95 1848.85 84.1 1922.95 33.35
M 591.3 217.75
L 569.45 242 607.9 208.25 78.75 208.25 128 242 98.9 217.75 591.3 217.75
M 792 46.95
L 758.5 84.1 817.4 32.4 6.65 32.4 82.1 84.1 37.5 46.95 792 46.95
M 1832.05 217.75
L 1802.95 242 1852.2 208.25 1323.05 208.25 1361.5 242 1339.65 217.75 1832.05 217.75 Z"/>

<path fill="#6D6D6D" stroke="none" d="
M 1924.3 4.3
L 1922.95 4.3 1113.55 4.3 1113.55 32.4 1924.3 32.4 1924.3 4.3
M 607.9 208.25
L 607.9 189.9 78.75 189.9 78.75 208.25 607.9 208.25
M 817.4 32.4
L 817.4 4.3 6.65 4.3 6.65 32.4 817.4 32.4
M 1852.2 208.25
L 1852.2 189.9 1323.05 189.9 1323.05 208.25 1852.2 208.25 Z"/>
</g>

<g id="scene1_0_Layer0_0_FILL">
<path fill="#606060" stroke="none" d="
M 34.8 912.95
L 2.7 901.7 2.7 965.5 184.9 965.5 34.8 912.95
M 254.9 901.7
L 244 901.7 238.6 901.7 34.8 901.7 217 965.5 437.1 965.5 287 912.95 254.9 901.7
M 527.25 912.95
L 527.25 912.5 498 901.7 469.8 901.7 464.45 901.7 287 901.7 469.2 965.5 677.35 965.5 527.25 912.95
M 464.45 525.85
L 244 525.85 244 873.7 464.45 873.7 464.45 525.85
M 418.85 740.95
Q 424.6 735.2 432.7 735.2 440.8 735.2 446.55 740.95 452.3 746.7 452.3 754.8 452.3 762.9 446.55 768.65 446.2 769 445.9 769.3 440.35 774.4 432.7 774.4 424.6 774.4 418.85 768.65 413.1 762.9 413.1 754.8 413.1 746.7 418.85 740.95
M 174.65 774.65
L 2.7 774.65 2.7 825.7 217.25 825.7 174.65 774.65
M 1920.6 825.7
L 1920.6 774.65 516.95 774.65 488.05 825.7 1920.6 825.7
M 1921.4 901.7
L 1920.6 901.7 1854.85 901.7 1924.95 926.25 1924.95 901.7 1921.4 901.7
M 174.65 456
L 217.25 486.45 488.05 486.45 516.95 456 174.65 456
M 751.4 912.95
L 719.3 901.7 527.25 901.7 709.45 965.5 901.5 965.5 751.4 912.95
M 1147.75 965.5
L 997.65 912.95 965.55 901.7 751.4 901.7 933.6 965.5 1147.75 965.5
M 1211.95 912.95
L 1179.85 901.7 997.65 901.7 1179.85 965.5 1362.05 965.5 1211.95 912.95
M 1426.25 912.95
L 1394.15 901.7 1211.95 901.7 1394.15 965.5 1576.35 965.5 1426.25 912.95
M 1790.65 965.5
L 1640.55 912.95 1608.45 901.7 1426.25 901.7 1608.45 965.5 1790.65 965.5
M 1918.7 1082.7
L 1924.95 1082.7
Q 1924.95 1071.95 1924.95 1061.2
L 1924.95 1022.7 1805.1 981.8 1622.9 981.8 1918.7 1082.7
M 1924.95 981.8
L 1837.2 981.8 1924.95 1011.75 1924.95 981.8
M 1854.85 912.95
L 1822.75 901.7 1640.55 901.7 1822.75 965.5 1924.95 965.5 1924.95 937.5 1854.85 912.95
M 987.6 1082.7
L 691.8 981.8 483.65 981.8 779.45 1082.7 987.6 1082.7
M 1162.2 981.8
L 948.05 981.8 1243.85 1082.7 1458 1082.7 1162.2 981.8
M 1019.7 1082.7
L 1211.75 1082.7 915.95 981.8 723.9 981.8 1019.7 1082.7
M 451.55 981.8
L 231.45 981.8 527.25 1082.7 747.35 1082.7 451.55 981.8
M 2.7 996.7
L 2.7 1082.7 254.9 1082.7 2.7 996.7
M 2.7 981.8
L 2.7 985.75 287 1082.7 495.15 1082.7 199.35 981.8 2.7 981.8
M 1672.3 1082.7
L 1376.5 981.8 1194.3 981.8 1490.1 1082.7 1672.3 1082.7
M 1704.4 1082.7
L 1886.6 1082.7 1590.8 981.8 1426.25 981.8 1426.25 987.85 1704.4 1082.7 Z"/>

<path fill="#4C4C4C" stroke="none" d="
M 464.45 901.7
L 464.45 873.7 244 873.7 244 901.7 254.9 901.7 287 912.95 287 901.7 464.45 901.7
M 418 754.8
Q 418 760.9 422.35 765.2 425.65 768.55 430.05 769.35 431.35 769.55 432.75 769.55 434.2 769.55 435.55 769.3 439.85 768.5 443.15 765.2 447.45 760.9 447.45 754.8 447.45 748.75 443.15 744.4 438.8 740.1 432.75 740.1 426.65 740.1 422.35 744.4 418 748.75 418 754.8
M 1822.75 901.7
L 1854.85 912.95 1854.85 901.7 1920.6 901.7 1920.6 825.7 488.05 825.7 488.05 486.45 217.25 486.45 217.25 825.7 2.7 825.7 2.7 901.7 34.8 912.95 34.8 901.7 238.6 901.7 238.55 518.4 469.75 518.4 469.8 901.7 498 901.7 527.25 912.5 527.25 901.7 719.3 901.7 751.4 912.95 751.4 901.7 965.55 901.7 997.65 912.95 997.65 901.7 1179.85 901.7 1211.95 912.95 1211.95 901.7 1394.15 901.7 1426.25 912.95 1426.25 901.7 1608.45 901.7 1640.55 912.95 1640.55 901.7 1822.75 901.7 Z"/>

<path fill="#3A3A3A" stroke="none" d="
M 432.7 735.2
Q 424.6 735.2 418.85 740.95 413.1 746.7 413.1 754.8 413.1 762.9 418.85 768.65 424.6 774.4 432.7 774.4 440.35 774.4 445.9 769.3 446.2 769 446.55 768.65 452.3 762.9 452.3 754.8 452.3 746.7 446.55 740.95 440.8 735.2 432.7 735.2
M 422.35 765.2
Q 418 760.9 418 754.8 418 748.75 422.35 744.4 426.65 740.1 432.75 740.1 438.8 740.1 443.15 744.4 447.45 748.75 447.45 754.8 447.45 760.9 443.15 765.2 439.85 768.5 435.55 769.3 434.2 769.55 432.75 769.55 431.35 769.55 430.05 769.35 425.65 768.55 422.35 765.2
M 469.75 518.4
L 238.55 518.4 238.6 901.7 244 901.7 244 873.7 244 525.85 464.45 525.85 464.45 873.7 464.45 901.7 469.8 901.7 469.75 518.4
M 1790.65 965.5
L 1790.65 976.9 1608.45 976.9 1608.45 965.5 1426.25 901.7 1426.25 912.95 1576.35 965.5 1576.35 976.9 1394.15 976.9 1394.15 965.5 1211.95 901.7 1211.95 912.95 1362.05 965.5 1362.05 976.9 1179.85 976.9 1179.85 965.5 997.65 901.7 997.65 912.95 1147.75 965.5 1147.75 976.9 933.6 976.9 933.6 965.5 751.4 901.7 751.4 912.95 901.5 965.5 901.5 976.9 709.45 976.9 709.45 965.5 527.25 901.7 527.25 912.5 527.25 912.95 677.35 965.5 677.35 976.9 469.2 976.9 469.2 965.5 287 901.7 287 912.95 437.1 965.5 437.1 976.9 217 976.9 217 965.5 34.8 901.7 34.8 912.95 184.9 965.5 184.9 976.9 2.7 976.9 2.7 981.8 199.35 981.8 495.15 1082.7 527.25 1082.7 231.45 981.8 451.55 981.8 747.35 1082.7 779.45 1082.7 483.65 981.8 691.8 981.8 987.6 1082.7 1019.7 1082.7 723.9 981.8 915.95 981.8 1211.75 1082.7 1243.85 1082.7 948.05 981.8 1162.2 981.8 1458 1082.7 1490.1 1082.7 1194.3 981.8 1376.5 981.8 1672.3 1082.7 1704.4 1082.7 1426.25 987.85 1408.6 981.8 1426.25 981.8 1590.8 981.8 1886.6 1082.7 1918.7 1082.7 1622.9 981.8 1805.1 981.8 1924.95 1022.7 1924.95 1011.75 1837.2 981.8 1924.95 981.8 1924.95 976.9 1822.75 976.9 1822.75 965.5 1640.55 901.7 1640.55 912.95 1790.65 965.5
M 1854.85 901.7
L 1854.85 912.95 1924.95 937.5 1924.95 926.25 1854.85 901.7
M 254.9 1082.7
L 287 1082.7 2.7 985.75 2.7 996.7 254.9 1082.7 Z"/>

<path fill="#B2B2B2" stroke="none" d="
M 672.65 189.9
L 672.55 189.8 2.7 189.8 2.7 294.1 2.7 303.4 815.8 303.4 720.4 227.75 672.65 189.9 Z"/>

<path fill="#666666" stroke="none" d="
M 1920.6 774.65
L 1920.6 227.75 720.4 227.75 815.8 303.4 815.8 357.6 2.7 357.6 2.7 774.65 174.65 774.65 174.65 456 516.95 456 516.95 774.65 1920.6 774.65
M 1623.25 389
L 1623.25 383.6 1680.45 383.6 1728.35 383.6 1785.5 383.6 1785.5 431.6 1785.5 449.1 1785.5 495.95 1785.5 545.85 1643.65 545.85 1623.25 545.85 1623.25 533.6 1623.25 389
M 1789.45 383.6
L 1828.35 383.6 1828.35 728.3 710.15 728.3 683.6 712.7 683.6 550.45 782 550.45 782 712.7 787.25 712.7 787.25 550.45 868.05 550.45 949.5 550.45 949.5 636.4 949.5 712.7 954.1 712.7 954.1 641.25 954.1 550.45 1011.35 550.45 1094.1 550.45 1116.35 550.45 1116.35 570 1116.35 649.65 1116.35 712.7 1122.25 712.7 1122.25 655.2 1122.25 575.2 1122.25 550.45 1148.3 550.45 1284.5 550.45 1284.5 654.1 1284.5 712.7 1289.1 712.7 1289.1 657.6 1289.1 550.45 1451.35 550.45 1451.35 712.7 1456.5 712.7 1456.5 550.45 1618.75 550.45 1618.75 712.7 1623.35 712.7 1623.35 550.45 1651.35 550.45 1785.6 550.45 1785.6 631.05 1785.6 712.7 1789.45 712.7 1789.45 383.6
M 1377.6 383.6
L 1451.25 383.6 1451.25 427.4 1451.25 545.85 1289 545.85 1289 383.6 1377.6 383.6
M 1615.1 383.6
L 1618.75 383.6 1618.75 386 1618.75 530.9 1618.75 545.85 1456.5 545.85 1456.5 433.55 1456.5 383.6 1615.1 383.6
M 1122.25 383.6
L 1284.5 383.6 1284.5 545.85 1142.25 545.85 1122.25 545.85 1122.25 530.65 1122.25 383.6
M 683.6 383.6
L 709.85 383.6 782 383.6 782 459.7 782 545.85 683.6 545.85 683.6 383.6
M 903.9 383.6
L 929 383.6 949.5 383.6 949.5 399.2 949.5 423.6 949.5 492.1 949.5 545.85 863.65 545.85 787.25 545.85 787.25 465.25 787.25 383.6 834.65 383.6 903.9 383.6
M 954 427.55
L 954 402.65 954 383.6 1116.25 383.6 1116.25 526.05 1116.25 545.85 1088.85 545.85 1006.45 545.85 954 545.85 954 496.35 954 427.55 Z"/>

<path fill="#303030" stroke="none" d="
M 1116.25 383.6
L 954 383.6 954 402.65 1116.25 526.05 1116.25 383.6
M 954 427.55
L 954 496.35 1006.45 545.85 1088.85 545.85 954 427.55
M 787.25 465.25
L 787.25 545.85 863.65 545.85 787.25 465.25
M 903.9 383.6
L 834.65 383.6 949.5 492.1 949.5 423.6 903.9 383.6
M 949.5 383.6
L 929 383.6 949.5 399.2 949.5 383.6
M 709.85 383.6
L 683.6 383.6 683.6 545.85 782 545.85 782 459.7 709.85 383.6
M 1284.5 383.6
L 1122.25 383.6 1122.25 530.65 1142.25 545.85 1284.5 545.85 1284.5 383.6
M 1618.75 545.85
L 1618.75 530.9 1456.5 433.55 1456.5 545.85 1618.75 545.85
M 1618.75 383.6
L 1615.1 383.6 1618.75 386 1618.75 383.6
M 1451.25 545.85
L 1451.25 427.4 1377.6 383.6 1289 383.6 1289 545.85 1451.25 545.85
M 1183.15 712.7
L 1279 712.7 1122.25 575.2 1122.25 655.2 1183.15 712.7
M 1116.35 570
L 1094.1 550.45 1011.35 550.45 1116.35 649.65 1116.35 570
M 1284.5 550.45
L 1148.3 550.45 1284.5 654.1 1284.5 550.45
M 949.5 712.7
L 949.5 636.4 868.05 550.45 787.25 550.45 787.25 712.7 949.5 712.7
M 954.1 641.25
L 954.1 712.7 1021.85 712.7 954.1 641.25
M 782 550.45
L 683.6 550.45 683.6 712.7 782 712.7 782 550.45
M 1651.35 550.45
L 1623.35 550.45 1623.35 712.7 1785.6 712.7 1785.6 631.05 1651.35 550.45
M 1618.75 550.45
L 1456.5 550.45 1456.5 712.7 1618.75 712.7 1618.75 550.45
M 1361.55 712.7
L 1451.35 712.7 1451.35 550.45 1289.1 550.45 1289.1 657.6 1361.55 712.7
M 1623.25 545.85
L 1643.65 545.85 1623.25 533.6 1623.25 545.85
M 1785.5 383.6
L 1728.35 383.6 1785.5 431.6 1785.5 383.6
M 1623.25 383.6
L 1623.25 389 1785.5 495.95 1785.5 449.1 1680.45 383.6 1623.25 383.6 Z"/>

<path fill="#AFAFAF" stroke="none" d="
M 954 496.35
L 954 545.85 1006.45 545.85 954 496.35
M 954 402.65
L 954 427.55 1088.85 545.85 1116.25 545.85 1116.25 526.05 954 402.65
M 834.65 383.6
L 787.25 383.6 787.25 465.25 863.65 545.85 949.5 545.85 949.5 492.1 834.65 383.6
M 929 383.6
L 903.9 383.6 949.5 423.6 949.5 399.2 929 383.6
M 782 383.6
L 709.85 383.6 782 459.7 782 383.6
M 1122.25 530.65
L 1122.25 545.85 1142.25 545.85 1122.25 530.65
M 1618.75 386
L 1615.1 383.6 1456.5 383.6 1456.5 433.55 1618.75 530.9 1618.75 386
M 1451.25 383.6
L 1377.6 383.6 1451.25 427.4 1451.25 383.6
M 1289.1 657.6
L 1289.1 712.7 1361.55 712.7 1289.1 657.6
M 1122.25 655.2
L 1122.25 712.7 1183.15 712.7 1122.25 655.2
M 1122.25 550.45
L 1122.25 575.2 1279 712.7 1284.5 712.7 1284.5 654.1 1148.3 550.45 1122.25 550.45
M 1094.1 550.45
L 1116.35 570 1116.35 550.45 1094.1 550.45
M 954.1 550.45
L 954.1 641.25 1021.85 712.7 1116.35 712.7 1116.35 649.65 1011.35 550.45 954.1 550.45
M 949.5 550.45
L 868.05 550.45 949.5 636.4 949.5 550.45
M 1785.6 550.45
L 1651.35 550.45 1785.6 631.05 1785.6 550.45
M 1785.5 545.85
L 1785.5 495.95 1623.25 389 1623.25 533.6 1643.65 545.85 1785.5 545.85
M 1728.35 383.6
L 1680.45 383.6 1785.5 449.1 1785.5 431.6 1728.35 383.6
M 1765.9 0
L 1765.9 189.9 1920.6 227.75 1920.6 774.65 1920.6 825.7 1920.6 901.7 1921.4 901.7 1921.4 0 1765.9 0 Z"/>

<path fill="#6D6D6D" stroke="none" d="
M 1456.5 712.7
L 1451.35 712.7 1361.55 712.7 1289.1 712.7 1284.5 712.7 1279 712.7 1183.15 712.7 1122.25 712.7 1116.35 712.7 1021.85 712.7 954.1 712.7 949.5 712.7 787.25 712.7 782 712.7 683.6 712.7 710.15 728.3 1828.35 728.3 1789.45 712.7 1785.6 712.7 1623.35 712.7 1618.75 712.7 1456.5 712.7 Z"/>

<path fill="#545454" stroke="none" d="
M 1828.35 383.6
L 1789.45 383.6 1789.45 712.7 1828.35 728.3 1828.35 383.6
M 516.95 456
L 488.05 486.45 488.05 825.7 516.95 774.65 516.95 456
M 217.25 486.45
L 174.65 456 174.65 774.65 217.25 825.7 217.25 486.45
M 901.5 976.9
L 901.5 965.5 709.45 965.5 709.45 976.9 901.5 976.9
M 1147.75 976.9
L 1147.75 965.5 933.6 965.5 933.6 976.9 1147.75 976.9
M 184.9 976.9
L 184.9 965.5 2.7 965.5 2.7 976.9 184.9 976.9
M 469.2 965.5
L 469.2 976.9 677.35 976.9 677.35 965.5 469.2 965.5
M 437.1 976.9
L 437.1 965.5 217 965.5 217 976.9 437.1 976.9
M 1362.05 976.9
L 1362.05 965.5 1179.85 965.5 1179.85 976.9 1362.05 976.9
M 1576.35 976.9
L 1576.35 965.5 1394.15 965.5 1394.15 976.9 1576.35 976.9
M 1822.75 965.5
L 1822.75 976.9 1924.95 976.9 1924.95 965.5 1822.75 965.5
M 1790.65 976.9
L 1790.65 965.5 1608.45 965.5 1608.45 976.9 1790.65 976.9
M 1426.25 987.85
L 1426.25 981.8 1408.6 981.8 1426.25 987.85 Z"/>

<path fill="#848484" stroke="none" d="
M 1920.6 227.75
L 1765.9 189.9 672.65 189.9 720.4 227.75 1920.6 227.75 Z"/>

<path fill="#595959" stroke="none" d="
M 1765.9 189.9
L 1765.9 0 0 0 0 292.75 2.7 294.1 2.7 189.8 672.55 189.8 672.65 189.9 1765.9 189.9 Z"/>

<path fill="#A0A0A0" stroke="none" d="
M 815.8 357.6
L 815.8 303.4 2.7 303.4 2.7 357.6 815.8 357.6 Z"/>
</g>
</defs>

<g transform="matrix( 1, 0, 0, 1, -1958.8,-1275.65) ">
<g transform="matrix( 1, 0, 0, 1, 0,0) ">
<use xlink:href="#scene2_0_Layer0_0_FILL"/>
</g>

<g transform="matrix( 0.352813720703125, 0.029937744140625, -0.029937744140625, 0.352813720703125, 1056.95,576.45) ">
<g transform="matrix( 1, 0, 0, 1, 0,0) ">
<use xlink:href="#car_0_Layer0_0_FILL"/>
</g>
</g>

<g transform="matrix( -0.4797515869140625, 0.045074462890625, 0.0125274658203125, 0.450225830078125, 394.6,641.95) ">
<g transform="matrix( 1, 0, 0, 1, 0,0) ">
<use xlink:href="#car_0_Layer0_0_FILL"/>
</g>
</g>

<g transform="matrix( 0.9717559814453125, 0.2358856201171875, -0.2358856201171875, 0.9717559814453125, 1235.95,500.8) ">
<g transform="matrix( 1, 0, 0, 1, 0,0) ">
<use xlink:href="#car_0_Layer0_0_FILL"/>
</g>
</g>
</g>

<g transform="matrix( 1, 0, 0, 1, 0,0) ">
<g transform="matrix( 1, 0, 0, 1, 0,0) ">
<use xlink:href="#scene3_0_Layer0_0_FILL"/>
</g>
</g>

<g transform="matrix( 1, 0, 0, 1, 1256.85,-1328.7) ">
<g transform="matrix( 1, 0, 0, 1, 0,0) ">
<use xlink:href="#scene1_0_Layer0_0_FILL"/>
</g>
</g>
</svg>
