
<svg xmlns="http://www.w3.org/2000/svg" version="1.1" xmlns:xlink="http://www.w3.org/1999/xlink" preserveAspectRatio="none" x="0px" y="0px" width="1920px" height="1080px" viewBox="0 0 1920 1080">
<defs>
<g id="Layer4_0_FILL">
<path fill="#AFAFAF" stroke="none" d="
M 1921.4 1082.7
L 1921.4 0 2.7 0 2.7 1082.7 1921.4 1082.7 Z"/>
</g>

<g id="Layer3_0_FILL">
<path fill="#3A3A3A" stroke="none" d="
M 469.75 518.4
L 238.55 518.4 238.6 914.05 238.55 938.25 469.75 938.25 469.8 914.05 469.75 518.4
M 244 525.85
L 464.45 525.85 464.45 873.7 464.45 926.1 244 926.1 244 873.7 244 525.85
M 432.7 735.2
Q 424.6 735.2 418.85 740.95 413.1 746.7 413.1 754.8 413.1 762.9 418.85 768.65 424.6 774.4 432.7 774.4 440.35 774.4 445.9 769.3 446.2 769 446.55 768.65 452.3 762.9 452.3 754.8 452.3 746.7 446.55 740.95 440.8 735.2 432.7 735.2
M 418 754.8
Q 418 748.75 422.35 744.4 426.65 740.1 432.75 740.1 438.8 740.1 443.15 744.4 447.45 748.75 447.45 754.8 447.45 760.9 443.15 765.2 439.85 768.5 435.55 769.3 434.2 769.55 432.75 769.55 431.35 769.55 430.05 769.35 425.65 768.55 422.35 765.2 418 760.9 418 754.8 Z"/>

<path fill="#4C4C4C" stroke="none" d="
M 464.45 926.1
L 464.45 873.7 244 873.7 244 926.1 464.45 926.1
M 422.35 744.4
Q 418 748.75 418 754.8 418 760.9 422.35 765.2 425.65 768.55 430.05 769.35 431.35 769.55 432.75 769.55 434.2 769.55 435.55 769.3 439.85 768.5 443.15 765.2 447.45 760.9 447.45 754.8 447.45 748.75 443.15 744.4 438.8 740.1 432.75 740.1 426.65 740.1 422.35 744.4
M 1920.6 914.05
L 1920.6 825.7 488.05 825.7 488.05 486.45 217.25 486.45 217.25 825.7 2.7 825.7 2.7 914.05 238.6 914.05 238.55 518.4 469.75 518.4 469.8 914.05 1920.6 914.05 Z"/>

<path fill="#606060" stroke="none" d="
M 464.45 525.85
L 244 525.85 244 873.7 464.45 873.7 464.45 525.85
M 418.85 740.95
Q 424.6 735.2 432.7 735.2 440.8 735.2 446.55 740.95 452.3 746.7 452.3 754.8 452.3 762.9 446.55 768.65 446.2 769 445.9 769.3 440.35 774.4 432.7 774.4 424.6 774.4 418.85 768.65 413.1 762.9 413.1 754.8 413.1 746.7 418.85 740.95
M 174.65 774.65
L 2.7 774.65 2.7 825.7 217.25 825.7 174.65 774.65
M 174.65 456
L 217.25 486.45 488.05 486.45 516.95 456 174.65 456
M 1920.6 825.7
L 1920.6 774.65 516.95 774.65 488.05 825.7 1920.6 825.7 Z"/>

<path fill="#545454" stroke="none" d="
M 516.95 456
L 488.05 486.45 488.05 825.7 516.95 774.65 516.95 456
M 217.25 486.45
L 174.65 456 174.65 774.65 217.25 825.7 217.25 486.45
M 1828.35 383.6
L 1789.45 383.6 1789.45 712.7 1828.35 728.3 1828.35 383.6 Z"/>

<path fill="#666666" stroke="none" d="
M 1920.6 774.65
L 1920.6 227.75 694.1 227.75 694.1 325.7 233.3 325.7 233.35 244.85 72.55 329.75 64.65 325.7 2.7 325.7 2.7 774.65 174.65 774.65 174.65 456 516.95 456 516.95 774.65 1920.6 774.65
M 1623.25 389
L 1623.25 383.6 1680.45 383.6 1728.35 383.6 1785.5 383.6 1785.5 431.6 1785.5 449.1 1785.5 495.95 1785.5 545.85 1643.65 545.85 1623.25 545.85 1623.25 533.6 1623.25 389
M 1789.45 383.6
L 1828.35 383.6 1828.35 728.3 710.15 728.3 683.6 712.7 683.6 550.45 782 550.45 782 712.7 787.25 712.7 787.25 550.45 868.05 550.45 949.5 550.45 949.5 636.4 949.5 712.7 954.1 712.7 954.1 641.25 954.1 550.45 1011.35 550.45 1094.1 550.45 1116.35 550.45 1116.35 570 1116.35 649.65 1116.35 712.7 1122.25 712.7 1122.25 655.2 1122.25 575.2 1122.25 550.45 1148.3 550.45 1284.5 550.45 1284.5 654.1 1284.5 712.7 1289.1 712.7 1289.1 657.6 1289.1 550.45 1451.35 550.45 1451.35 712.7 1456.5 712.7 1456.5 550.45 1618.75 550.45 1618.75 712.7 1623.35 712.7 1623.35 550.45 1651.35 550.45 1785.6 550.45 1785.6 631.05 1785.6 712.7 1789.45 712.7 1789.45 383.6
M 1377.6 383.6
L 1451.25 383.6 1451.25 427.4 1451.25 545.85 1289 545.85 1289 383.6 1377.6 383.6
M 1615.1 383.6
L 1618.75 383.6 1618.75 386 1618.75 530.9 1618.75 545.85 1456.5 545.85 1456.5 433.55 1456.5 383.6 1615.1 383.6
M 1122.25 383.6
L 1284.5 383.6 1284.5 545.85 1142.25 545.85 1122.25 545.85 1122.25 530.65 1122.25 383.6
M 683.6 383.6
L 709.85 383.6 782 383.6 782 459.7 782 545.85 683.6 545.85 683.6 383.6
M 903.9 383.6
L 929 383.6 949.5 383.6 949.5 399.2 949.5 423.6 949.5 492.1 949.5 545.85 863.65 545.85 787.25 545.85 787.25 465.25 787.25 383.6 834.65 383.6 903.9 383.6
M 954 427.55
L 954 402.65 954 383.6 1116.25 383.6 1116.25 526.05 1116.25 545.85 1088.85 545.85 1006.45 545.85 954 545.85 954 496.35 954 427.55 Z"/>

<path fill="#303030" stroke="none" d="
M 1116.25 383.6
L 954 383.6 954 402.65 1116.25 526.05 1116.25 383.6
M 954 427.55
L 954 496.35 1006.45 545.85 1088.85 545.85 954 427.55
M 787.25 465.25
L 787.25 545.85 863.65 545.85 787.25 465.25
M 903.9 383.6
L 834.65 383.6 949.5 492.1 949.5 423.6 903.9 383.6
M 949.5 383.6
L 929 383.6 949.5 399.2 949.5 383.6
M 709.85 383.6
L 683.6 383.6 683.6 545.85 782 545.85 782 459.7 709.85 383.6
M 1284.5 383.6
L 1122.25 383.6 1122.25 530.65 1142.25 545.85 1284.5 545.85 1284.5 383.6
M 1618.75 545.85
L 1618.75 530.9 1456.5 433.55 1456.5 545.85 1618.75 545.85
M 1618.75 383.6
L 1615.1 383.6 1618.75 386 1618.75 383.6
M 1451.25 545.85
L 1451.25 427.4 1377.6 383.6 1289 383.6 1289 545.85 1451.25 545.85
M 1183.15 712.7
L 1279 712.7 1122.25 575.2 1122.25 655.2 1183.15 712.7
M 1116.35 570
L 1094.1 550.45 1011.35 550.45 1116.35 649.65 1116.35 570
M 1284.5 550.45
L 1148.3 550.45 1284.5 654.1 1284.5 550.45
M 949.5 712.7
L 949.5 636.4 868.05 550.45 787.25 550.45 787.25 712.7 949.5 712.7
M 954.1 641.25
L 954.1 712.7 1021.85 712.7 954.1 641.25
M 782 550.45
L 683.6 550.45 683.6 712.7 782 712.7 782 550.45
M 1651.35 550.45
L 1623.35 550.45 1623.35 712.7 1785.6 712.7 1785.6 631.05 1651.35 550.45
M 1618.75 712.7
L 1618.75 550.45 1456.5 550.45 1456.5 712.7 1618.75 712.7
M 1361.55 712.7
L 1451.35 712.7 1451.35 550.45 1289.1 550.45 1289.1 657.6 1361.55 712.7
M 1623.25 545.85
L 1643.65 545.85 1623.25 533.6 1623.25 545.85
M 1785.5 383.6
L 1728.35 383.6 1785.5 431.6 1785.5 383.6
M 1623.25 383.6
L 1623.25 389 1785.5 495.95 1785.5 449.1 1680.45 383.6 1623.25 383.6 Z"/>

<path fill="#AFAFAF" stroke="none" d="
M 954 496.35
L 954 545.85 1006.45 545.85 954 496.35
M 954 402.65
L 954 427.55 1088.85 545.85 1116.25 545.85 1116.25 526.05 954 402.65
M 834.65 383.6
L 787.25 383.6 787.25 465.25 863.65 545.85 949.5 545.85 949.5 492.1 834.65 383.6
M 929 383.6
L 903.9 383.6 949.5 423.6 949.5 399.2 929 383.6
M 782 383.6
L 709.85 383.6 782 459.7 782 383.6
M 1122.25 530.65
L 1122.25 545.85 1142.25 545.85 1122.25 530.65
M 1618.75 386
L 1615.1 383.6 1456.5 383.6 1456.5 433.55 1618.75 530.9 1618.75 386
M 1451.25 383.6
L 1377.6 383.6 1451.25 427.4 1451.25 383.6
M 1289.1 657.6
L 1289.1 712.7 1361.55 712.7 1289.1 657.6
M 1122.25 655.2
L 1122.25 712.7 1183.15 712.7 1122.25 655.2
M 1122.25 550.45
L 1122.25 575.2 1279 712.7 1284.5 712.7 1284.5 654.1 1148.3 550.45 1122.25 550.45
M 1094.1 550.45
L 1116.35 570 1116.35 550.45 1094.1 550.45
M 954.1 550.45
L 954.1 641.25 1021.85 712.7 1116.35 712.7 1116.35 649.65 1011.35 550.45 954.1 550.45
M 949.5 550.45
L 868.05 550.45 949.5 636.4 949.5 550.45
M 1785.6 631.05
L 1785.6 550.45 1651.35 550.45 1785.6 631.05
M 1785.5 545.85
L 1785.5 495.95 1623.25 389 1623.25 533.6 1643.65 545.85 1785.5 545.85
M 1728.35 383.6
L 1680.45 383.6 1785.5 449.1 1785.5 431.6 1728.35 383.6 Z"/>

<path fill="#6D6D6D" stroke="none" d="
M 1456.5 712.7
L 1451.35 712.7 1361.55 712.7 1289.1 712.7 1284.5 712.7 1279 712.7 1183.15 712.7 1122.25 712.7 1116.35 712.7 1021.85 712.7 954.1 712.7 949.5 712.7 787.25 712.7 782 712.7 683.6 712.7 710.15 728.3 1828.35 728.3 1789.45 712.7 1785.6 712.7 1623.35 712.7 1618.75 712.7 1456.5 712.7 Z"/>

<path fill="#848484" stroke="none" d="
M 1920.6 227.75
L 1765.9 189.9 233.35 189.9 233.35 244.85 233.3 325.7 694.1 325.7 694.1 227.75 1920.6 227.75 Z"/>

<path fill="#595959" stroke="none" d="
M 1765.9 189.9
L 1765.9 0 0 0 0 292.75 64.65 325.7 72.55 329.75 233.35 244.85 233.35 189.9 1765.9 189.9 Z"/>
</g>

<g id="Layer2_0_FILL">
<path fill="#606060" stroke="none" d="
M 451.55 981.8
L 231.45 981.8 527.25 1082.7 747.35 1082.7 451.55 981.8
M 2.7 996.7
L 2.7 1082.7 254.9 1082.7 2.7 996.7
M 2.7 981.8
L 2.7 985.75 287 1082.7 495.15 1082.7 199.35 981.8 2.7 981.8
M 34.8 912.95
L 2.7 901.7 2.7 965.5 184.9 965.5 34.8 912.95
M 287 912.95
L 254.9 901.7 34.8 901.7 217 965.5 437.1 965.5 287 912.95
M 527.25 912.95
L 527.25 912.5 498 901.7 287 901.7 469.2 965.5 677.35 965.5 527.25 912.95
M 1672.3 1082.7
L 1376.5 981.8 1194.3 981.8 1490.1 1082.7 1672.3 1082.7
M 1426.25 912.95
L 1394.15 901.7 1211.95 901.7 1394.15 965.5 1576.35 965.5 1426.25 912.95
M 1704.4 1082.7
L 1886.6 1082.7 1590.8 981.8 1426.25 981.8 1426.25 987.85 1704.4 1082.7
M 1790.65 965.5
L 1640.55 912.95 1608.45 901.7 1426.25 901.7 1608.45 965.5 1790.65 965.5
M 1924.95 1082.7
Q 1924.95 1071.95 1924.95 1061.2
L 1924.95 1022.7 1805.1 981.8 1622.9 981.8 1918.7 1082.7 1924.95 1082.7
M 1924.95 981.8
L 1837.2 981.8 1924.95 1011.75 1924.95 981.8
M 1924.95 926.25
L 1924.95 901.7 1854.85 901.7 1924.95 926.25
M 1854.85 912.95
L 1822.75 901.7 1640.55 901.7 1822.75 965.5 1924.95 965.5 1924.95 937.5 1854.85 912.95
M 1162.2 981.8
L 948.05 981.8 1243.85 1082.7 1458 1082.7 1162.2 981.8
M 987.6 1082.7
L 691.8 981.8 483.65 981.8 779.45 1082.7 987.6 1082.7
M 751.4 912.95
L 719.3 901.7 527.25 901.7 709.45 965.5 901.5 965.5 751.4 912.95
M 1019.7 1082.7
L 1211.75 1082.7 915.95 981.8 723.9 981.8 1019.7 1082.7
M 1147.75 965.5
L 997.65 912.95 965.55 901.7 751.4 901.7 933.6 965.5 1147.75 965.5
M 1211.95 912.95
L 1179.85 901.7 997.65 901.7 1179.85 965.5 1362.05 965.5 1211.95 912.95 Z"/>

<path fill="#3A3A3A" stroke="none" d="
M 254.9 1082.7
L 287 1082.7 2.7 985.75 2.7 996.7 254.9 1082.7
M 1854.85 901.7
L 1854.85 912.95 1924.95 937.5 1924.95 926.25 1854.85 901.7
M 1211.95 901.7
L 1211.95 912.95 1362.05 965.5 1362.05 976.9 1179.85 976.9 1179.85 965.5 997.65 901.7 997.65 912.95 1147.75 965.5 1147.75 976.9 933.6 976.9 933.6 965.5 751.4 901.7 751.4 912.95 901.5 965.5 901.5 976.9 709.45 976.9 709.45 965.5 527.25 901.7 527.25 912.5 527.25 912.95 677.35 965.5 677.35 976.9 469.2 976.9 469.2 965.5 287 901.7 287 912.95 437.1 965.5 437.1 976.9 217 976.9 217 965.5 34.8 901.7 34.8 912.95 184.9 965.5 184.9 976.9 2.7 976.9 2.7 981.8 199.35 981.8 495.15 1082.7 527.25 1082.7 231.45 981.8 451.55 981.8 747.35 1082.7 779.45 1082.7 483.65 981.8 691.8 981.8 987.6 1082.7 1019.7 1082.7 723.9 981.8 915.95 981.8 1211.75 1082.7 1243.85 1082.7 948.05 981.8 1162.2 981.8 1458 1082.7 1490.1 1082.7 1194.3 981.8 1376.5 981.8 1672.3 1082.7 1704.4 1082.7 1426.25 987.85 1408.6 981.8 1426.25 981.8 1590.8 981.8 1886.6 1082.7 1918.7 1082.7 1622.9 981.8 1805.1 981.8 1924.95 1022.7 1924.95 1011.75 1837.2 981.8 1924.95 981.8 1924.95 976.9 1822.75 976.9 1822.75 965.5 1640.55 901.7 1640.55 912.95 1790.65 965.5 1790.65 976.9 1608.45 976.9 1608.45 965.5 1426.25 901.7 1426.25 912.95 1576.35 965.5 1576.35 976.9 1394.15 976.9 1394.15 965.5 1211.95 901.7 Z"/>

<path fill="#545454" stroke="none" d="
M 184.9 976.9
L 184.9 965.5 2.7 965.5 2.7 976.9 184.9 976.9
M 437.1 976.9
L 437.1 965.5 217 965.5 217 976.9 437.1 976.9
M 1426.25 987.85
L 1426.25 981.8 1408.6 981.8 1426.25 987.85
M 1576.35 976.9
L 1576.35 965.5 1394.15 965.5 1394.15 976.9 1576.35 976.9
M 1822.75 965.5
L 1822.75 976.9 1924.95 976.9 1924.95 965.5 1822.75 965.5
M 1790.65 976.9
L 1790.65 965.5 1608.45 965.5 1608.45 976.9 1790.65 976.9
M 677.35 976.9
L 677.35 965.5 469.2 965.5 469.2 976.9 677.35 976.9
M 901.5 976.9
L 901.5 965.5 709.45 965.5 709.45 976.9 901.5 976.9
M 1179.85 965.5
L 1179.85 976.9 1362.05 976.9 1362.05 965.5 1179.85 965.5
M 1147.75 976.9
L 1147.75 965.5 933.6 965.5 933.6 976.9 1147.75 976.9 Z"/>
</g>

<g id="Layer1_0_FILL">
<path fill="#B2B2B2" stroke="none" d="
M 815.8 303.4
L 672.55 189.8 2.7 189.8 2.7 303.4 815.8 303.4 Z"/>

<path fill="#A0A0A0" stroke="none" d="
M 815.8 357.6
L 815.8 303.4 2.7 303.4 2.7 357.6 815.8 357.6 Z"/>
</g>
</defs>

<g transform="matrix( 1, 0, 0, 1, 0,0) ">
<use xlink:href="#Layer4_0_FILL"/>
</g>

<g transform="matrix( 1, 0, 0, 1, 0,0) ">
<use xlink:href="#Layer3_0_FILL"/>
</g>

<g transform="matrix( 1, 0, 0, 1, 0,0) ">
<use xlink:href="#Layer2_0_FILL"/>
</g>

<g transform="matrix( 1, 0, 0, 1, 0,0) ">
<use xlink:href="#Layer1_0_FILL"/>
</g>
</svg>
