<svg xmlns="http://www.w3.org/2000/svg" viewBox="0 0 177.89 177.89"><defs><style>.cls-1{fill:#333;}.cls-2{fill:#1e1e1e;}</style></defs><title>mvtBackground</title><g id="Layer_2" data-name="Layer 2"><g id="Layer_2-2" data-name="Layer 2"><rect class="cls-1" width="177.89" height="177.89"/><path class="cls-2" d="M72,19.7l-4.21-7.84H39.84l-5.36,7.27L14.74,20.93l1,9.67H25.3a6.14,6.14,0,0,1,6.12-4.21,6.14,6.14,0,0,1,6.12,4.21H61.27A6.68,6.68,0,0,1,67.73,26c6.06,0,6.55,4.57,6.55,4.57h8V21.8Zm-24.35-.38H37l4.31-5.66h6.34Zm3.24,0V13.65H65.7l2,5.66Z"/><circle class="cls-2" cx="31.41" cy="32.67" r="4.31"/><circle class="cls-2" cx="67.69" cy="31.98" r="4.31"/><path class="cls-2" d="M161.86,19.7l-4.21-7.84H129.72l-5.36,7.27-19.74,1.81,1,9.67h9.58a6.56,6.56,0,0,1,12.24,0h23.72A6.68,6.68,0,0,1,157.61,26c6.06,0,6.55,4.57,6.55,4.57h8V21.8Zm-24.35-.38H126.86l4.31-5.66h6.34Zm3.24,0V13.65h14.83l2,5.66Z"/><circle class="cls-2" cx="121.29" cy="32.67" r="4.31"/><circle class="cls-2" cx="157.57" cy="31.98" r="4.31"/><path class="cls-2" d="M72,55.6l-4.21-7.84H39.84L34.48,55,14.74,56.83l1,9.67H25.3a6.14,6.14,0,0,1,6.12-4.21,6.14,6.14,0,0,1,6.12,4.21H61.27a6.68,6.68,0,0,1,6.46-4.57c6.06,0,6.55,4.57,6.55,4.57h8V57.7Zm-24.35-.38H37l4.31-5.66h6.34Zm3.24,0V49.55H65.7l2,5.66Z"/><circle class="cls-2" cx="31.41" cy="68.57" r="4.31"/><circle class="cls-2" cx="67.69" cy="67.88" r="4.31"/><path class="cls-2" d="M72,92.65l-4.21-7.84H39.84l-5.36,7.27L14.74,93.89l1,9.67H25.3a6.14,6.14,0,0,1,6.12-4.21,6.14,6.14,0,0,1,6.12,4.21H61.27A6.68,6.68,0,0,1,67.73,99c6.06,0,6.55,4.57,6.55,4.57h8v-8.8Zm-24.35-.38H37l4.31-5.66h6.34Zm3.24,0V86.61H65.7l2,5.66Z"/><circle class="cls-2" cx="31.41" cy="105.63" r="4.31"/><circle class="cls-2" cx="67.69" cy="104.93" r="4.31"/><path class="cls-2" d="M72.15,125.41l-4.21-7.84H40l-5.36,7.27-19.74,1.81,1,9.67h9.58a6.14,6.14,0,0,1,6.12-4.21,6.14,6.14,0,0,1,6.12,4.21H61.43a6.68,6.68,0,0,1,6.46-4.57c6.06,0,6.55,4.57,6.55,4.57h8v-8.8ZM47.8,125H37.15l4.31-5.66H47.8ZM51,125v-5.66H65.86l2,5.66Z"/><circle class="cls-2" cx="31.57" cy="138.38" r="4.31"/><circle class="cls-2" cx="67.85" cy="137.68" r="4.31"/><path class="cls-2" d="M72,160.6l-4.21-7.84H39.84L34.48,160l-19.74,1.81,1,9.67H25.3a6.14,6.14,0,0,1,6.12-4.21,6.14,6.14,0,0,1,6.12,4.21H61.27a6.68,6.68,0,0,1,6.46-4.57c6.06,0,6.55,4.57,6.55,4.57h8v-8.8Zm-24.35-.38H37l4.31-5.66h6.34Zm3.24,0v-5.66H65.7l2,5.66Z"/><circle class="cls-2" cx="31.41" cy="173.58" r="4.31"/><circle class="cls-2" cx="67.69" cy="172.88" r="4.31"/><path class="cls-2" d="M161.78,55.6l-4.21-7.84H129.63L124.28,55l-19.74,1.81,1,9.67h9.58a6.56,6.56,0,0,1,12.24,0h23.72a6.68,6.68,0,0,1,6.46-4.57c6.06,0,6.55,4.57,6.55,4.57h8V57.7Zm-24.35-.38H126.78l4.31-5.66h6.34Zm3.24,0V49.55h14.83l2,5.66Z"/><circle class="cls-2" cx="121.2" cy="68.57" r="4.31"/><circle class="cls-2" cx="157.48" cy="67.88" r="4.31"/><path class="cls-2" d="M161.78,92.65l-4.21-7.84H129.63l-5.36,7.27-19.74,1.81,1,9.67h9.58a6.56,6.56,0,0,1,12.24,0h23.72A6.68,6.68,0,0,1,157.52,99c6.06,0,6.55,4.57,6.55,4.57h8v-8.8Zm-24.35-.38H126.78l4.31-5.66h6.34Zm3.24,0V86.61h14.83l2,5.66Z"/><circle class="cls-2" cx="121.2" cy="105.63" r="4.31"/><circle class="cls-2" cx="157.48" cy="104.93" r="4.31"/><path class="cls-2" d="M161.94,125.41l-4.21-7.84H129.8l-5.36,7.27-19.74,1.81,1,9.67h9.58a6.56,6.56,0,0,1,12.24,0h23.72a6.68,6.68,0,0,1,6.46-4.57c6.06,0,6.55,4.57,6.55,4.57h8v-8.8ZM137.59,125H126.94l4.31-5.66h6.34Zm3.24,0v-5.66h14.83l2,5.66Z"/><circle class="cls-2" cx="121.37" cy="138.38" r="4.31"/><circle class="cls-2" cx="157.65" cy="137.68" r="4.31"/><path class="cls-2" d="M161.78,160.6l-4.21-7.84H129.63L124.28,160l-19.74,1.81,1,9.67h9.58a6.56,6.56,0,0,1,12.24,0h23.72a6.68,6.68,0,0,1,6.46-4.57c6.06,0,6.55,4.57,6.55,4.57h8v-8.8Zm-24.35-.38H126.78l4.31-5.66h6.34Zm3.24,0v-5.66h14.83l2,5.66Z"/><circle class="cls-2" cx="121.2" cy="173.58" r="4.31"/><circle class="cls-2" cx="157.48" cy="172.88" r="4.31"/></g></g></svg>