<svg xmlns="http://www.w3.org/2000/svg" viewBox="0 0 210.83 91.18"><defs><style>.cls-1{fill:#7c7c7c;}.cls-2{fill:#fff;}</style></defs><title>mvt6Logo</title><g id="Layer_2" data-name="Layer 2"><g id="Layer_2-2" data-name="Layer 2"><path class="cls-1" d="M110.88,91.18c-6.35,0-10.3-2.38-12.49-5.55l-.91,5.55H0V30.77H29.38v.1q1.23-.1,2.52-.1a19.08,19.08,0,0,1,8.22,1.55l.21.1a15.3,15.3,0,0,1,2-.71,30.13,30.13,0,0,1,7.93-.94,21.91,21.91,0,0,1,2.88.19l0-.19h72.46v3h18.65V78.29c0,5.95-3.85,12.89-14.69,12.89Z"/><polygon class="cls-1" points="174.89 91.18 174.89 77.98 172.95 91.18 127.89 91.18 114.77 0 210.83 0 210.83 91.18 174.89 91.18"/><polygon points="182.16 3.6 178.49 3.6 153.79 3.6 150.99 26.87 148.13 3.6 118.92 3.6 131.01 87.58 169.84 87.58 178.49 28.64 178.49 87.58 207.23 87.58 207.23 3.6 182.16 3.6"/><polygon class="cls-2" points="150.74 53.58 145.05 7.2 122.41 7.2 133.47 83.98 166.83 83.98 178.09 7.2 156.32 7.2 150.74 53.58"/><rect class="cls-2" x="181.42" y="7.2" width="22.32" height="76.78"/><path d="M110.88,87.58c-10.29,0-11.09-7.11-11.09-9.29V55.9h-.16L94.42,87.58H65.91L63.07,70v17.6H3.6V34.37H25.78v.71a24.79,24.79,0,0,1,6.12-.71,15.64,15.64,0,0,1,6.68,1.21,11.29,11.29,0,0,1,1.65,1,11.42,11.42,0,0,1,3.06-1.34,26.57,26.57,0,0,1,7-.81,17.28,17.28,0,0,1,4.59.6A13.82,13.82,0,0,1,57.6,36l-.27-1.68H79.89l.64,4.68.63-4.68H122v3h18.65v41c0,2.18-.8,9.29-11.09,9.29Z"/><path class="cls-2" d="M44.64,84V49.64a.13.13,0,0,0-.14-.14H41a.13.13,0,0,0-.14.14V84h-15V49.64a.13.13,0,0,0-.14-.14H22.32a.13.13,0,0,0-.14.14V84H7.2V38h15v3a8.68,8.68,0,0,1,3.92-2.2A20.44,20.44,0,0,1,31.9,38a12.37,12.37,0,0,1,5.15.86,7.76,7.76,0,0,1,3.06,2.59,7.83,7.83,0,0,1,4.14-2.77,22.92,22.92,0,0,1,6-.68,13.61,13.61,0,0,1,3.64.47,9.35,9.35,0,0,1,2.92,1.33,6.86,6.86,0,0,1,1.94,2.05,4.85,4.85,0,0,1,.72,2.56V84ZM69,84,61.56,38H76.75l3.82,27.79L84.31,38H98.93L91.37,84Zm41.9,0q-7.49,0-7.49-5.69v-26H99.72V40.93h3.67V38h15v3H137V52.3H118.37V72.39a.13.13,0,0,0,.14.14H122a.13.13,0,0,0,.14-.14V55.25H137v23Q137,84,129.53,84Z"/></g></g></svg>